<svg width="115" height="112" viewBox="0 0 115 112" fill="none" xmlns="http://www.w3.org/2000/svg">
<path d="M100.31 71.5C92.5405 93.8528 62.1268 103.592 38.9105 95.5225C15.6942 87.4533 8.34755 59.3996 16.1166 37.0468C23.8856 14.694 51.011 7.91983 74.2273 15.989C97.4436 24.0581 108.079 49.1472 100.31 71.5Z" fill="#3A1712"/>
<path fill-rule="evenodd" clip-rule="evenodd" d="M77.7489 35.0091C78.322 34.8214 78.9321 34.7961 79.5157 34.9357C80.0993 35.0754 80.635 35.3749 81.0671 35.8032C81.4992 36.2315 81.8119 36.7728 81.9726 37.3709C82.1333 37.9689 82.1362 38.6018 81.9809 39.2037L73.896 70.5002C73.1134 73.5188 69.7038 74.9671 67.1402 73.1814C64.9957 71.6874 61.8174 69.3978 58.9857 67.0549C57.5699 65.8824 53.2468 62.1476 54.0405 59.8597C54.7216 57.9037 63.2328 51.122 68.113 47.0729C70.0286 45.4819 69.3285 44.3917 67.1101 45.8115C61.6015 49.3368 52.7896 54.6561 49.9047 56.1149C47.3599 57.401 46.084 57.5402 44.6126 57.1386C41.928 56.4066 39.4663 55.4349 37.4852 54.3482C34.808 52.8803 35.3242 48.9108 38.0889 48.0047L77.7489 35.0091Z" fill="#FFFBC6"/>
</svg>
