<svg width="92" height="89" viewBox="0 0 92 89" fill="none" xmlns="http://www.w3.org/2000/svg">
<path d="M89.9956 43.6884C90.7146 66.6482 66.5269 86.0366 42.6801 86.7834C18.8333 87.5302 2.43279 64.6512 1.71377 41.6913C0.994749 18.7315 26.9274 2.79217 50.7742 2.04538C74.6209 1.29858 89.2766 20.7285 89.9956 43.6884Z" fill="#3A1712"/>
<path d="M56.8253 23.7345L63.1685 23.587L49.6651 39.1732L66.4523 59.5606L53.6867 59.8574L43.3965 47.4935L32.2476 60.356L25.901 60.5036L40.345 43.832L24.2461 24.4938L37.3357 24.1894L46.6407 35.4928L56.8253 23.7345ZM55.3529 56.1594L58.8675 56.0776L35.5065 27.6985L31.7351 27.7862L55.3529 56.1594Z" fill="#FFFBC6"/>
</svg>
