<svg width="91" height="88" viewBox="0 0 91 88" fill="none" xmlns="http://www.w3.org/2000/svg">
<path d="M89.5739 43.538C90.2929 66.4978 66.1052 85.8862 42.2584 86.633C18.4116 87.3798 2.01109 64.5008 1.29207 41.5409C0.573047 18.5811 18.4112 3.04584 42.258 2.29904C66.1048 1.55225 88.8549 20.5781 89.5739 43.538Z" fill="#3A1712"/>
<g clip-path="url(#clip0_260_4606)">
<path d="M41.2354 23.4289C40.7447 23.3524 40.724 23.3434 40.9549 23.3077C41.3975 23.2393 42.4425 23.3326 43.1626 23.5046C44.8437 23.9062 46.3735 24.9349 48.0064 26.7618L48.4402 27.2472L49.0607 27.1469C51.6752 26.7247 54.3348 27.0602 56.5594 28.0929C57.1713 28.377 58.1362 28.9426 58.2568 29.0879C58.2952 29.1342 58.3658 29.4324 58.4135 29.7505C58.5787 30.8511 58.4961 31.6948 58.161 32.3249C57.9788 32.6678 57.9686 32.7764 58.0911 33.0699C58.189 33.3041 58.4617 33.4774 58.7318 33.477C59.2847 33.4763 59.8797 32.5782 60.1553 31.3287L60.2649 30.8324L60.4818 31.0793C61.6718 32.4342 62.6065 34.2818 62.767 35.597L62.8088 35.9398L62.6089 35.6281C62.2646 35.0918 61.9187 34.7266 61.4758 34.4321C60.6774 33.9012 59.8332 33.7206 57.5974 33.6021C55.5782 33.4952 54.4354 33.3219 53.3021 32.9505C51.3742 32.3189 50.4022 31.4776 48.112 28.4581C47.0947 27.117 46.466 26.375 45.8405 25.7774C44.4194 24.4196 43.0229 23.7075 41.2354 23.4289Z" fill="#FFFBC6"/>
<path d="M58.7121 26.4225C58.7629 25.5238 58.8842 24.931 59.1281 24.3897C59.2246 24.1754 59.315 24 59.329 24C59.3429 24 59.301 24.1582 59.2357 24.3515C59.0584 24.8769 59.0294 25.5954 59.1514 26.4315C59.3065 27.4923 59.3946 27.6453 60.5103 28.7912C61.0337 29.3287 61.6424 30.0065 61.863 30.2976L62.2643 30.8268L61.863 30.4486C61.3723 29.9861 60.2439 29.0842 59.9946 28.9552C59.8275 28.8688 59.8027 28.8702 59.6995 28.9734C59.6045 29.0684 59.5846 29.2111 59.5714 29.8861C59.5509 30.938 59.4082 31.6132 59.0638 32.2884C58.8776 32.6535 58.8482 32.5756 59.0168 32.1635C59.1426 31.8557 59.1554 31.7204 59.1544 30.702C59.1525 28.656 58.9108 28.1641 57.4931 27.3214C57.134 27.108 56.5423 26.8001 56.1782 26.6373C55.8141 26.4744 55.5249 26.3326 55.5354 26.322C55.5756 26.2818 56.9581 26.6873 57.5146 26.9024C58.3422 27.2223 58.4789 27.2638 58.5794 27.2252C58.6468 27.1994 58.6794 27.0021 58.7121 26.4225Z" fill="#FFFBC6"/>
<path d="M42.1896 29.9232C41.1934 28.545 40.5771 26.4318 40.7104 24.8521L40.7518 24.3633L40.9785 24.4049C41.4044 24.483 42.1386 24.7576 42.4824 24.9674C43.4259 25.5432 43.8344 26.3013 44.25 28.2481C44.3717 28.8182 44.5314 29.4635 44.6049 29.682C44.7232 30.0336 45.1702 30.855 45.5336 31.3884C45.7955 31.7725 45.6216 31.9546 45.0429 31.9021C44.1591 31.8219 42.962 30.9917 42.1896 29.9232Z" fill="#FFFBC6"/>
<path d="M57.5044 40.1798C52.8487 38.2961 51.209 36.661 51.209 33.9023C51.209 33.4963 51.2229 33.1641 51.2398 33.1641C51.2568 33.1641 51.4369 33.2981 51.6401 33.4618C52.5842 34.2227 53.6414 34.5478 56.5681 34.9768C58.2903 35.2293 59.2595 35.4332 60.1535 35.7312C62.9952 36.6782 64.7533 38.6 65.1725 41.2177C65.2944 41.9784 65.2229 43.4047 65.0254 44.1565C64.8695 44.7502 64.3937 45.8205 64.2674 45.8615C64.2324 45.8729 64.1981 45.7382 64.1891 45.5548C64.1413 44.5719 63.647 43.6149 62.8169 42.8981C61.873 42.0831 60.6049 41.4342 57.5044 40.1798Z" fill="#FFFBC6"/>
<path d="M54.236 40.9627C54.1776 40.614 54.0765 40.1685 54.0111 39.9729L53.8924 39.6172L54.113 39.8661C54.4183 40.2105 54.6596 40.6512 54.8642 41.2381C55.0202 41.6862 55.0378 41.8193 55.0366 42.5474C55.0354 43.2621 55.0159 43.4119 54.8718 43.8151C54.6445 44.451 54.3625 44.9019 53.8892 45.3859C53.0387 46.2557 51.9453 46.7372 50.3675 46.937C50.0932 46.9716 49.2938 47.0301 48.5911 47.0669C46.8199 47.1594 45.6543 47.3506 44.6069 47.7202C44.4563 47.7734 44.3218 47.8056 44.3082 47.792C44.2658 47.7496 44.979 47.3223 45.568 47.0372C46.3985 46.6352 47.2253 46.4159 49.0777 46.1058C49.9928 45.9526 50.9378 45.7669 51.1778 45.6929C53.4439 44.9948 54.6087 43.193 54.236 40.9627Z" fill="#FFFBC6"/>
<path d="M56.3695 44.7704C55.751 43.4342 55.609 42.1441 55.9478 40.9408C55.9841 40.8123 56.0424 40.707 56.0775 40.707C56.1125 40.707 56.2585 40.7864 56.4018 40.8833C56.6869 41.0761 57.2585 41.4008 58.7816 42.2353C60.6822 43.2766 61.7658 44.0829 62.5028 45.0041C63.1481 45.8109 63.5475 46.7297 63.7397 47.8501C63.8485 48.4849 63.7847 50.012 63.6227 50.6511C63.1117 52.6662 61.9241 54.249 60.2301 55.1726C59.9819 55.3079 59.7591 55.4191 59.735 55.4196C59.7109 55.42 59.8013 55.189 59.9359 54.9061C60.5058 53.7091 60.5707 52.5447 60.1399 51.2487C59.8761 50.4552 59.3383 49.4869 58.2523 47.8504C56.9897 45.9478 56.6801 45.4414 56.3695 44.7704Z" fill="#FFFBC6"/>
<path d="M38.8823 51.9813C40.61 50.5154 42.7596 49.474 44.7179 49.1544C45.5617 49.0166 46.9675 49.0713 47.749 49.2722C49.0017 49.5944 50.1221 50.3159 50.7049 51.1755C51.2744 52.0157 51.5187 52.7478 51.7732 54.3768C51.8734 55.0193 51.9826 55.6646 52.0156 55.8107C52.2066 56.6549 52.5785 57.3297 53.0391 57.6686C53.7708 58.2067 55.0308 58.2402 56.2702 57.7544C56.4806 57.6719 56.6632 57.6149 56.6761 57.6278C56.721 57.6726 56.0969 58.0925 55.6566 58.3135C55.0642 58.6108 54.593 58.7259 53.9671 58.7259C52.8319 58.7259 51.8894 58.1455 51.103 56.9623C50.9483 56.7294 50.6004 56.0319 50.33 55.4124C49.4997 53.5093 49.0897 52.9295 48.1256 52.295C47.2866 51.743 46.2046 51.6441 45.3906 52.0452C44.3214 52.572 44.0231 53.945 44.7889 54.8152C45.0932 55.161 45.6608 55.4593 46.125 55.5173C46.9932 55.6258 47.7394 54.9621 47.7394 54.0812C47.7394 53.5092 47.5206 53.1828 46.9699 52.933C46.2176 52.592 45.4091 52.9906 45.413 53.7008C45.4147 54.0035 45.5459 54.1937 45.8479 54.331C46.0417 54.4191 46.0462 54.4261 45.8881 54.3931C45.198 54.2493 45.0363 53.4132 45.5912 52.8581C46.2574 52.1917 47.6352 52.4858 48.1083 53.3954C48.307 53.7774 48.3301 54.5383 48.1569 54.9978C47.769 56.0262 46.6382 56.5669 45.491 56.2726C44.71 56.0722 44.392 55.8553 43.4504 54.8806C41.8141 53.1869 41.1789 52.8587 38.82 52.4887L38.3679 52.4178L38.8823 51.9813Z" fill="#FFFBC6"/>
<path fill-rule="evenodd" clip-rule="evenodd" d="M26.544 14.0404C32.0084 20.705 40.4328 31.0812 40.8511 31.6622C41.1964 32.1418 41.0664 32.5731 40.4749 32.911C40.1459 33.099 39.4695 33.2894 39.1308 33.2894C38.7478 33.2894 38.3163 33.104 38.0021 32.8045C37.78 32.5928 36.8836 31.2478 34.8143 28.0212C33.2309 25.5524 31.9058 23.5044 31.8697 23.4701C31.7861 23.3908 31.7876 23.3935 34.6528 28.5452C36.4519 31.7801 37.0593 32.9238 37.0593 33.0767C37.0593 33.3878 36.9749 33.5513 36.593 33.9794C35.9563 34.6931 35.6717 35.495 35.4663 37.1547C35.2359 39.0152 34.5883 40.3295 32.7936 42.5787C31.743 43.8954 31.571 44.1367 31.306 44.6674C30.972 45.3357 30.8802 45.71 30.843 46.5538C30.8037 47.4461 30.8803 48.0225 31.1516 48.8755C31.389 49.6224 31.6369 50.1155 32.2706 51.1019C32.8175 51.953 33.1325 52.5856 33.1325 52.833C33.1325 53.0299 33.1698 53.0302 34.0173 52.8379C36.0453 52.3777 37.6922 51.5682 38.6184 50.5763C39.1915 49.9624 39.3261 49.6233 39.3305 48.782C39.3333 48.2317 39.3141 48.1165 39.1661 47.7999C38.9251 47.2846 38.4864 46.8562 37.5195 46.192C36.2526 45.3217 35.7115 44.6211 35.562 43.6575C35.4394 42.8669 35.5817 42.3091 36.2825 40.8331C37.008 39.3052 37.1877 38.6541 37.3093 37.1141C37.3879 36.1191 37.4966 35.7267 37.7811 35.4118C38.0778 35.0833 38.3449 34.9721 39.0792 34.8713C40.2762 34.7069 41.0384 34.3957 41.665 33.8156C42.2086 33.3123 42.436 32.8273 42.4709 32.0972L42.4974 31.5439L42.1937 31.188C41.0937 29.8992 25.8074 13.0273 25.7397 13.0273C25.7252 13.0273 26.0872 13.4833 26.544 14.0404ZM33.7499 47.5634C33.9986 47.1209 33.8665 46.5518 33.4505 46.2739C33.0574 46.0112 32.4467 46.1349 32.4467 46.4772C32.4467 46.5816 32.5043 46.6577 32.6338 46.7247C32.8518 46.8374 32.8677 46.9642 32.6961 47.2234C32.5223 47.4859 32.5364 47.7167 32.7357 47.8735C33.057 48.1263 33.5117 47.9873 33.7499 47.5634Z" fill="#FFFBC6"/>
<path fill-rule="evenodd" clip-rule="evenodd" d="M43.2529 35.1621C42.691 35.3356 42.1447 35.9341 41.9755 36.5617C41.8724 36.9446 41.9309 37.6162 42.0855 37.8235C42.3351 38.1585 42.5765 38.2468 43.2302 38.2422C44.5099 38.2332 45.6225 37.6817 45.7519 36.9921C45.8579 36.4269 45.3693 35.6436 44.6962 35.2997C44.3489 35.1223 43.6103 35.0519 43.2529 35.1621ZM44.749 36.3377C44.9464 36.056 44.86 35.7514 44.5244 35.5454C43.8852 35.1532 42.9185 35.4777 42.9185 36.0846C42.9185 36.3867 43.4226 36.7162 43.8847 36.7162C44.1922 36.7162 44.6131 36.5319 44.749 36.3377Z" fill="#FFFBC6"/>
</g>
<defs>
<clipPath id="clip0_260_4606">
<rect width="45.6716" height="45.6716" fill="white" transform="translate(22.4043 13.4551)"/>
</clipPath>
</defs>
</svg>
