<svg width="91" height="82" viewBox="0 0 91 82" fill="none" xmlns="http://www.w3.org/2000/svg">
<path d="M89.7197 43.6691C90.4387 66.6289 69.2328 79.7517 45.386 80.4985C21.5392 81.2453 2.15691 64.6319 1.43789 41.672C0.718872 18.7122 15.6975 3.17827 39.5443 2.43148C63.3911 1.68468 89.0007 20.7092 89.7197 43.6691Z" fill="#3A1712"/>
<path fill-rule="evenodd" clip-rule="evenodd" d="M46.5594 20.4005C44.0618 21.7188 42.0184 22.8345 42.0189 22.8799C42.0201 22.997 48.0132 26.0728 48.2259 26.0653C48.3226 26.062 49.0245 25.7345 49.7857 25.3378L51.1698 24.6165L52.6813 25.4038L54.1928 26.1913L56.6681 25.0642C60.3979 23.3658 60.7852 23.1797 60.7246 23.1173C60.644 23.0343 59.3063 22.3061 55.6767 20.3697C53.9226 19.4338 52.2201 18.5163 51.8932 18.3305C51.5662 18.1446 51.2542 17.9952 51.1997 17.9981C51.1451 18.001 49.0569 19.082 46.5593 20.4003L46.5594 20.4005ZM35.6049 26.1486L33.005 27.5097V33.4824C33.005 36.7674 33.0391 39.4551 33.0811 39.4551C33.1231 39.4551 34.402 38.8932 35.9236 38.2064L38.6902 36.9576V30.662L40.0422 31.4084C41.0839 31.9831 42.1265 32.5564 43.1694 33.1287L44.9447 34.1027L45.7346 33.7407C46.23 33.5132 46.7245 33.2837 47.2179 33.0518C47.5992 32.8718 48.5351 32.4446 49.2978 32.1023C50.0606 31.7598 50.7665 31.4153 50.8666 31.3369C50.9995 31.2326 49.3781 30.3246 44.8691 27.9782C41.4704 26.2095 38.5806 24.768 38.4473 24.775C38.314 24.782 37.035 25.3999 35.6049 26.1485V26.1486ZM61.1928 26.5307C59.4221 27.3407 57.9721 28.0359 57.9704 28.0755C57.9689 28.1152 58.9339 28.6967 60.1152 29.3677C61.2962 30.0388 62.2628 30.6237 62.2628 30.6678C62.2628 30.7118 61.2175 31.225 59.9402 31.8085C58.6626 32.3919 55.4336 33.8696 52.7644 35.0923L43.8205 39.189C41.5707 40.2197 39.5427 41.1486 39.3139 41.2536C34.7185 43.3616 33.4555 43.9465 33.2821 44.0469C33.1076 44.148 33.0682 44.7353 33.0371 47.6829L33 51.1986L35.3251 52.3991L37.65 53.5995L40.8739 52.1252C42.6471 51.3143 44.0979 50.6085 44.0979 50.5564C44.0979 50.5043 43.7701 50.2883 43.3699 50.0754C42.9695 49.8626 42.1426 49.3917 41.5325 49.0285C40.9224 48.6652 40.3142 48.3321 40.1805 48.2879C40.0471 48.2438 39.9398 48.1668 39.942 48.1164C39.9442 48.0662 41.3638 47.383 43.0966 46.5978C46.4621 45.073 49.0376 43.8977 54.567 41.364C57.0395 40.2311 59.5124 39.0994 61.9854 37.9677C64.1589 36.9735 66.6861 35.8125 67.6013 35.3875L69.2652 34.6149L69.3021 31.0592L69.3392 27.5037L66.9811 26.2773C65.684 25.6027 64.5754 25.0525 64.5173 25.0545C64.4592 25.0564 62.963 25.7208 61.1925 26.5309L61.1928 26.5307ZM68.6336 39.3583C68.2861 39.5303 67.5998 39.8524 67.1083 40.0739C66.6169 40.2954 65.6845 40.7217 65.0361 41.0215L63.8575 41.5663L63.8307 44.6878C63.8159 46.4046 63.7534 47.8017 63.692 47.7927C63.5525 47.7716 61.3434 46.6235 59.1229 45.4178C57.5203 44.5476 57.4196 44.5131 57.043 44.7021C56.8252 44.8115 55.5239 45.4028 54.1511 46.0165C52.7783 46.6302 51.6105 47.1724 51.5554 47.2214C51.5007 47.2704 54.2634 48.7877 57.6952 50.5937L63.9346 53.877L66.6 52.4797C68.0658 51.7114 69.3122 51.0105 69.3696 50.9223C69.4989 50.7241 69.4878 39.0182 69.3584 39.0341C69.3072 39.0403 68.981 39.1862 68.6334 39.3582L68.6336 39.3583ZM53.8738 53.0981C53.4114 53.2996 52.9492 53.5013 52.4872 53.7033C51.0919 54.3151 51.3652 54.3353 49.7051 53.4979C48.5994 52.9402 48.1228 52.7681 47.916 52.8516C47.7608 52.9142 46.4253 53.5231 44.948 54.2046C43.4708 54.8862 42.211 55.4437 42.1484 55.4437C41.5285 55.4437 42.559 56.0676 46.5349 58.0999L51.1978 60.4833L53.1598 59.5018C54.2388 58.962 56.4153 57.8808 57.9964 57.0996C59.5774 56.318 60.8515 55.6582 60.8277 55.6334C60.8037 55.6086 59.4789 54.9192 57.8836 54.1016L54.983 52.615L53.8738 53.0985V53.0981Z" fill="#FFFBC6"/>
</svg>
