<svg width="92" height="89" viewBox="0 0 92 89" fill="none" xmlns="http://www.w3.org/2000/svg">
<path d="M90.1099 43.7314C90.8289 66.6912 66.6412 86.0796 42.7944 86.8264C18.9476 87.5732 2.54705 64.6942 1.82803 41.7343C1.10901 18.7744 27.0416 2.83514 50.8884 2.08835C74.7352 1.34155 89.3908 20.7715 90.1099 43.7314Z" fill="#3A1712"/>
<g clip-path="url(#clip0_260_4623)">
<path fill-rule="evenodd" clip-rule="evenodd" d="M51.9953 33.0507C53.3022 32.402 54.9648 31.4468 56.6297 30.1378C56.9806 30.8638 57.0194 31.4972 56.8382 32.0085C56.71 32.3689 56.4683 32.6824 56.1511 32.9318C55.8073 33.2012 55.3778 33.3978 54.9031 33.5037C54.0024 33.7058 52.9506 33.5876 51.9953 33.0503M52.222 39.699L53.9518 40.694C50.4198 42.6655 49.4593 46.3261 48.3185 49.8913C47.1781 46.3261 46.2177 42.6651 42.6857 40.694L44.4155 39.699C44.7588 39.5698 44.9796 39.2354 44.9622 38.8703C44.8035 35.5311 45.709 34.0544 46.9305 33.1275C47.3684 32.7955 47.8466 32.6289 48.3185 32.6289C48.7904 32.6289 49.2687 32.7955 49.7066 33.1275C50.9277 34.0548 51.8331 35.5311 51.6749 38.8703C51.6575 39.2354 51.8786 39.5698 52.2216 39.699H52.222ZM48.3189 17.8965C50.3185 17.9501 52.3232 18.3365 54.0629 19.0884C55.2678 19.61 56.3916 20.2985 57.4098 21.1222C57.8694 21.494 58.248 21.8532 58.6649 22.2668C59.7895 22.3054 61.4331 21.0615 62.1961 19.8975C60.8828 24.1844 54.8908 29.2464 50.7425 31.1836C50.741 31.1828 50.7398 31.1821 50.7386 31.1813C49.9941 30.6152 49.1567 30.332 48.3193 30.332C47.4819 30.332 46.6445 30.6152 45.9 31.1813C45.8989 31.1821 45.8977 31.1832 45.8961 31.1836C41.747 29.2464 35.7554 24.184 34.4421 19.8975C35.2052 21.0615 36.8484 22.3058 37.9729 22.2668C38.3899 21.8536 38.7684 21.494 39.2281 21.1222C40.2459 20.2985 41.37 19.61 42.5749 19.0884C44.315 18.3365 46.3193 17.9501 48.3189 17.8965ZM44.6426 33.0507C43.336 32.402 41.6731 31.4468 40.0081 30.1378C39.6573 30.8638 39.6185 31.4972 39.7993 32.0085C39.9274 32.3689 40.1691 32.6824 40.4864 32.9318C40.8305 33.2012 41.2601 33.3978 41.7348 33.5037C42.6355 33.7058 43.6873 33.5876 44.6422 33.0503" fill="#FFFBC6"/>
<path fill-rule="evenodd" clip-rule="evenodd" d="M58.4529 28.5339C59.3694 27.6129 60.1771 26.5935 60.8263 25.6836L61.1562 26.3016C62.2179 28.4169 62.7697 30.5239 62.7697 32.8948L62.7673 36.6573L62.7871 38.6076C62.8638 43.3958 63.9045 48.2401 66.2613 52.6735L61.3302 48.7139L57.8413 54.3519L54.176 50.9159L48.3185 60.3813L42.461 50.9162L38.7957 54.3523L35.3068 48.7143L30.3757 52.6738C32.7325 48.2405 33.7728 43.3958 33.85 38.608L33.8698 36.6577L33.8674 32.8952C33.8674 30.5239 34.4188 28.4173 35.4809 26.302L35.8104 25.684C36.4599 26.5935 37.2673 27.6129 38.1838 28.5343L37.8974 29.1263C37.3412 30.2761 37.1573 31.5618 37.5904 32.7849C37.8697 33.5723 38.3792 34.2478 39.0362 34.7635C39.6743 35.2641 40.4294 35.6017 41.2197 35.7789C41.7348 35.8944 42.2593 35.942 42.7806 35.9259C42.6592 36.6124 42.6058 37.3242 42.6026 38.0498L37.9512 40.7252L41.5405 42.7286C41.8273 42.8889 42.1006 43.0721 42.357 43.2773C45.3162 45.9231 47.0954 53.7504 48.3181 57.5736C49.5408 53.7504 51.3201 45.9231 54.2793 43.2773C54.5356 43.0725 54.8089 42.8889 55.0957 42.7286L58.6851 40.7252L54.0336 38.0498C54.0301 37.3242 53.9771 36.6124 53.8556 35.9259C54.377 35.942 54.9015 35.8944 55.4165 35.7789C56.2069 35.6017 56.962 35.2641 57.6 34.7635C58.2571 34.2478 58.7666 33.5723 59.0458 32.7849C59.479 31.5622 59.295 30.2765 58.7389 29.1263L58.4525 28.5343L58.4529 28.5339Z" fill="#FFFBC6"/>
</g>
<defs>
<clipPath id="clip0_260_4623">
<rect width="35.8856" height="42.4852" fill="white" transform="translate(30.3757 17.8965)"/>
</clipPath>
</defs>
</svg>
