<svg width="143" height="38" viewBox="0 0 143 38" fill="none" xmlns="http://www.w3.org/2000/svg">
<path d="M14.2847 11.3223L24.0605 27.6837H4.5089L14.2847 11.3223Z" fill="#3A1712"/>
<path d="M30.519 19.6914L22.5007 6.4691L38.5374 6.4691L30.519 19.6914Z" fill="#3A1712"/>
<path d="M127.143 18.0534C127.143 16.5402 127.484 15.2082 128.166 14.0573C128.869 12.9064 129.818 12.0113 131.011 11.3719C132.205 10.7112 133.558 10.3809 135.071 10.3809C136.585 10.3809 137.927 10.7112 139.099 11.3719C140.293 12.0113 141.241 12.9064 141.945 14.0573C142.648 15.2082 143 16.5402 143 18.0534C143 19.5453 142.648 20.8773 141.945 22.0495C141.241 23.2004 140.293 24.1062 139.099 24.7669C137.927 25.4063 136.585 25.726 135.071 25.726C133.558 25.726 132.205 25.4063 131.011 24.7669C129.818 24.1062 128.869 23.2004 128.166 22.0495C127.484 20.8773 127.143 19.5453 127.143 18.0534ZM130.692 18.0534C130.692 18.9699 130.883 19.7797 131.267 20.483C131.651 21.1651 132.173 21.7085 132.834 22.1135C133.494 22.4971 134.24 22.6889 135.071 22.6889C135.881 22.6889 136.617 22.4971 137.277 22.1135C137.959 21.7085 138.492 21.1651 138.876 20.483C139.259 19.7797 139.451 18.9699 139.451 18.0534C139.451 17.137 139.259 16.3271 138.876 15.6238C138.492 14.9205 137.959 14.377 137.277 13.9934C136.617 13.6097 135.881 13.4179 135.071 13.4179C134.24 13.4179 133.494 13.6097 132.834 13.9934C132.173 14.377 131.651 14.9205 131.267 15.6238C130.883 16.3271 130.692 17.137 130.692 18.0534Z" fill="#3A1712"/>
<path d="M111.317 10.7012H115.089L118.926 20.196L122.762 10.7012H126.566L118.926 26.7496L111.317 10.7012Z" fill="#3A1712"/>
<path d="M94.8916 18.0534C94.8916 16.5402 95.2326 15.2082 95.9146 14.0573C96.6179 12.9064 97.5663 12.0113 98.7598 11.3719C99.9533 10.7112 101.307 10.3809 102.82 10.3809C104.333 10.3809 105.676 10.7112 106.848 11.3719C108.041 12.0113 108.99 12.9064 109.693 14.0573C110.397 15.2082 110.748 16.5402 110.748 18.0534C110.748 19.5453 110.397 20.8773 109.693 22.0495C108.99 23.2004 108.041 24.1062 106.848 24.7669C105.676 25.4063 104.333 25.726 102.82 25.726C101.307 25.726 99.9533 25.4063 98.7598 24.7669C97.5663 24.1062 96.6179 23.2004 95.9146 22.0495C95.2326 20.8773 94.8916 19.5453 94.8916 18.0534ZM98.4402 18.0534C98.4402 18.9699 98.632 19.7797 99.0156 20.483C99.3992 21.1651 99.9214 21.7085 100.582 22.1135C101.243 22.4971 101.989 22.6889 102.82 22.6889C103.63 22.6889 104.365 22.4971 105.026 22.1135C105.708 21.7085 106.241 21.1651 106.624 20.483C107.008 19.7797 107.2 18.9699 107.2 18.0534C107.2 17.137 107.008 16.3271 106.624 15.6238C106.241 14.9205 105.708 14.377 105.026 13.9934C104.365 13.6097 103.63 13.4179 102.82 13.4179C101.989 13.4179 101.243 13.6097 100.582 13.9934C99.9214 14.377 99.3992 14.9205 99.0156 15.6238C98.632 16.3271 98.4402 17.137 98.4402 18.0534Z" fill="#3A1712"/>
<path d="M88.0529 16.455C88.0529 15.368 87.8291 14.5475 87.3816 13.9934C86.934 13.4392 86.2413 13.1622 85.3036 13.1622C84.6642 13.1622 84.0994 13.3007 83.6092 13.5778C83.119 13.8335 82.7354 14.2171 82.4583 14.7286C82.1813 15.2188 82.0427 15.7943 82.0427 16.455V25.4063H78.5901V10.7005H82.0427V12.9703C82.5116 12.0965 83.1084 11.4465 83.833 11.0202C84.5789 10.594 85.4634 10.3809 86.4864 10.3809C88.1488 10.3809 89.4169 10.8924 90.2907 11.9154C91.1645 12.9171 91.6015 14.3024 91.6015 16.0713V25.4063H88.0529V16.455Z" fill="#3A1712"/>
<path d="M65.7001 20.579C66.169 21.0905 66.6378 21.538 67.1067 21.9217C67.5969 22.284 68.0871 22.561 68.5773 22.7528C69.0675 22.9233 69.5577 23.0086 70.0479 23.0086C70.6659 23.0086 71.1455 22.8701 71.4865 22.593C71.8488 22.3159 72.0299 21.9323 72.0299 21.4421C72.0299 21.0159 71.8914 20.6535 71.6143 20.3552C71.3373 20.0355 70.9536 19.7691 70.4635 19.5559C69.9733 19.3215 69.3978 19.0871 68.7371 18.8526C68.0764 18.5969 67.4157 18.2985 66.7551 17.9575C66.1157 17.5952 65.5829 17.1263 65.1566 16.5509C64.7517 15.9754 64.5492 15.2508 64.5492 14.377C64.5492 13.4818 64.773 12.7359 65.2205 12.1392C65.6894 11.5424 66.3075 11.1055 67.0747 10.8284C67.8633 10.53 68.7052 10.3809 69.6003 10.3809C70.4102 10.3809 71.1668 10.4981 71.8701 10.7325C72.5947 10.967 73.2448 11.276 73.8202 11.6596C74.3956 12.0432 74.8858 12.4802 75.2908 12.9703L73.3726 15.0164C72.8824 14.4409 72.2963 13.972 71.6143 13.6097C70.9323 13.2474 70.229 13.0663 69.5044 13.0663C69.0142 13.0663 68.6093 13.1728 68.2896 13.3859C67.9699 13.5991 67.81 13.9081 67.81 14.313C67.81 14.654 67.9486 14.9631 68.2256 15.2401C68.524 15.4959 68.9076 15.7303 69.3765 15.9435C69.8667 16.1566 70.4102 16.3804 71.0069 16.6148C71.8168 16.9345 72.5627 17.2862 73.2448 17.6698C73.9268 18.0534 74.4702 18.5223 74.8752 19.0764C75.3014 19.6305 75.5145 20.3552 75.5145 21.2503C75.5145 22.6356 75.035 23.7545 74.0759 24.607C73.1382 25.4382 71.8594 25.8538 70.2397 25.8538C69.238 25.8538 68.3109 25.7046 67.4584 25.4063C66.6272 25.0866 65.8919 24.6816 65.2525 24.1914C64.6344 23.6799 64.1123 23.1471 63.686 22.593L65.7001 20.579Z" fill="#3A1712"/>
<path d="M45.9023 18.0534C45.9023 16.5402 46.2433 15.2082 46.9254 14.0573C47.6287 12.9064 48.5771 12.0113 49.7706 11.3719C50.9641 10.7112 52.3174 10.3809 53.8306 10.3809C55.3438 10.3809 56.6865 10.7112 57.8587 11.3719C59.0522 12.0113 60.0007 12.9064 60.704 14.0573C61.4073 15.2082 61.7589 16.5402 61.7589 18.0534C61.7589 19.5453 61.4073 20.8773 60.704 22.0495C60.0007 23.2004 59.0522 24.1062 57.8587 24.7669C56.6865 25.4063 55.3438 25.726 53.8306 25.726C52.3174 25.726 50.9641 25.4063 49.7706 24.7669C48.5771 24.1062 47.6287 23.2004 46.9254 22.0495C46.2433 20.8773 45.9023 19.5453 45.9023 18.0534ZM49.4509 18.0534C49.4509 18.9699 49.6427 19.7797 50.0263 20.483C50.41 21.1651 50.9321 21.7085 51.5928 22.1135C52.2535 22.4971 52.9995 22.6889 53.8306 22.6889C54.6405 22.6889 55.3758 22.4971 56.0365 22.1135C56.7185 21.7085 57.2513 21.1651 57.6349 20.483C58.0186 19.7797 58.2104 18.9699 58.2104 18.0534C58.2104 17.137 58.0186 16.3271 57.6349 15.6238C57.2513 14.9205 56.7185 14.377 56.0365 13.9934C55.3758 13.6097 54.6405 13.4179 53.8306 13.4179C52.9995 13.4179 52.2535 13.6097 51.5928 13.9934C50.9321 14.377 50.41 14.9205 50.0263 15.6238C49.6427 16.3271 49.4509 17.137 49.4509 18.0534Z" fill="#3A1712"/>
</svg>
