<svg width="455" height="271" viewBox="0 0 455 271" fill="none" xmlns="http://www.w3.org/2000/svg">
<g filter="url(#filter0_f_260_74)">
<path d="M209.571 78.6281C209.571 100.609 171.388 118.428 124.286 118.428C77.1837 118.428 39 100.609 39 78.6281C39 56.6472 77.1837 38.8281 124.286 38.8281C171.388 38.8281 209.571 56.6472 209.571 78.6281Z" fill="#558426"/>
</g>
<g filter="url(#filter1_f_260_74)">
<path d="M288.815 177.127C285.014 198.777 242.57 209.417 194.012 200.892C145.455 192.368 109.172 167.907 112.973 146.257C116.773 124.607 159.218 113.967 207.776 122.491C256.333 131.016 292.616 155.477 288.815 177.127Z" fill="#66AA28" fill-opacity="0.84"/>
</g>
<g filter="url(#filter2_f_260_74)">
<path d="M393.432 218.064C389.632 239.714 347.187 250.354 298.629 241.83C250.072 233.306 213.789 208.845 217.59 187.195C221.391 165.545 263.835 154.905 312.393 163.429C360.95 171.953 397.233 196.414 393.432 218.064Z" fill="#88C039"/>
</g>
<g filter="url(#filter3_f_260_74)">
<path d="M428.887 88.0228C426.306 102.722 397.488 109.947 364.519 104.159C331.551 98.3711 306.916 81.7629 309.496 67.0635C312.077 52.364 340.895 45.1396 373.864 50.9274C406.833 56.7151 431.468 73.3233 428.887 88.0228Z" fill="#66AA28" fill-opacity="0.7"/>
</g>
<path d="M378.102 158.132C379.223 157.013 380.361 156.412 381.516 156.328C382.176 156.28 382.787 156.401 383.347 156.692C383.907 156.983 384.543 157.455 385.254 158.108C385.942 159.012 386.432 159.764 386.725 160.365C387.056 160.921 387.242 161.488 387.284 162.066C387.375 163.304 386.841 164.524 385.685 165.728C383.825 167.523 381.788 169.164 379.574 170.653C377.358 172.1 375.024 173.369 372.574 174.46C370.124 175.551 367.574 176.421 364.926 177.07C362.281 177.76 359.638 178.202 356.998 178.394C353.657 178.638 350.49 178.433 347.498 177.78C344.509 177.169 341.802 176.163 339.378 174.764C336.995 173.362 334.94 171.625 333.213 169.553C331.483 167.439 330.187 165.025 329.326 162.309C328.87 161.181 328.465 160.464 328.111 160.158C327.796 159.808 327.287 159.658 326.586 159.709C325.059 159.821 323.857 159.535 322.977 158.853C322.098 158.17 321.608 157.128 321.505 155.725C321.463 155.148 321.478 154.774 321.548 154.602L321.582 153.356C321.68 151.856 321.993 150.755 322.523 150.053C323.093 149.347 324.018 148.948 325.297 148.855L326.225 148.787C327.958 148.661 329.116 147.768 329.7 146.108C330.771 143.169 332.211 140.451 334.02 137.955C335.829 135.46 337.911 133.296 340.265 131.466C342.617 129.594 345.163 128.102 347.902 126.99C350.679 125.834 353.532 125.149 356.461 124.936C359.513 124.713 362.393 124.96 365.099 125.675C367.844 126.346 370.263 127.393 372.357 128.816C374.452 130.239 376.132 131.962 377.4 133.985C378.708 136.004 379.451 138.231 379.628 140.665C379.752 142.356 379.534 143.927 378.976 145.378C378.419 146.829 377.56 148.135 376.401 149.298C375.238 150.42 373.794 151.375 372.069 152.164C370.384 152.951 368.436 153.528 366.223 153.897L344.909 157.627C344.084 157.688 343.419 157.943 342.912 158.395C342.447 158.844 342.241 159.419 342.292 160.12C342.37 161.192 342.837 162.195 343.693 163.128C344.59 164.058 345.727 164.867 347.104 165.554C348.52 166.198 350.11 166.683 351.876 167.011C353.683 167.335 355.515 167.43 357.371 167.294C359.145 167.165 360.948 166.868 362.78 166.402C364.651 165.893 366.469 165.242 368.236 164.45C370.044 163.654 371.782 162.74 373.448 161.706C375.112 160.631 376.663 159.439 378.102 158.132ZM363.14 143.173C363.75 143.004 364.265 142.676 364.685 142.19C365.103 141.662 365.286 141.047 365.235 140.346C365.19 139.727 364.921 139.166 364.428 138.663C363.936 138.159 363.282 137.73 362.468 137.375C361.651 136.978 360.718 136.694 359.669 136.521C358.62 136.349 357.517 136.305 356.362 136.389C354.671 136.512 352.957 136.886 351.219 137.51C349.481 138.135 347.92 138.912 346.537 139.842C345.15 140.731 344.039 141.704 343.204 142.76C342.365 143.775 341.981 144.757 342.05 145.706C342.119 146.654 342.731 147.087 343.886 147.003C344.587 146.951 345.716 146.786 347.271 146.507C348.827 146.228 350.546 145.916 352.428 145.571C354.308 145.185 356.207 144.778 358.124 144.347C360.042 143.917 361.714 143.526 363.14 143.173Z" fill="white"/>
<path d="M283.498 130.128C285.478 129.984 287.367 130.012 289.165 130.213C290.959 130.373 292.592 130.585 294.063 130.851C295.531 131.076 296.793 131.316 297.848 131.571C298.9 131.784 299.653 131.875 300.107 131.842C300.478 131.814 300.816 131.603 301.119 131.208C301.418 130.771 301.799 130.308 302.261 129.818C302.723 129.328 303.353 128.868 304.151 128.436C304.946 127.964 306.024 127.678 307.386 127.579C308.953 127.464 310.221 127.787 311.189 128.546C312.153 129.263 312.679 130.22 312.766 131.417C313.867 146.515 314.286 159.382 314.025 170.017C313.76 180.612 312.713 189.293 310.884 196.062C309.055 202.83 306.413 207.834 302.958 211.071C299.503 214.309 295.156 216.119 289.917 216.501C287.525 216.675 284.99 216.321 282.313 215.438C279.677 214.551 277.225 213.341 274.957 211.806C272.691 210.312 270.784 208.606 269.234 206.687C267.725 204.765 266.903 202.875 266.768 201.019C266.723 200.4 267 199.654 267.6 198.781C268.2 197.908 268.946 197.045 269.837 196.192C270.729 195.339 271.671 194.607 272.663 193.995C273.655 193.384 274.523 193.051 275.265 192.997C276.049 192.94 276.732 193.201 277.313 193.781C277.897 194.402 278.451 195.17 278.974 196.086C279.538 196.999 280.108 197.994 280.685 199.072C281.264 200.191 281.959 201.197 282.771 202.092C283.583 202.987 284.547 203.704 285.665 204.245C286.786 204.827 288.15 205.059 289.759 204.942C298.752 204.286 303.031 190.165 302.596 162.577C302.506 161.339 302.11 160.746 301.409 160.797C300.831 160.839 300.399 161.161 300.111 161.763C296.615 167.284 292.364 171.554 287.359 174.573C282.392 177.548 276.753 179.265 270.441 179.725C267.512 179.939 264.779 179.703 262.24 179.017C259.699 178.29 257.464 177.209 255.535 175.773C253.644 174.294 252.123 172.497 250.974 170.383C249.821 168.227 249.149 165.829 248.957 163.189C248.767 160.59 249.035 158 249.759 155.417C250.521 152.79 251.646 150.303 253.134 147.955C254.66 145.563 256.509 143.334 258.68 141.268C260.852 139.202 263.25 137.389 265.873 135.83C268.494 134.229 271.282 132.947 274.24 131.985C277.235 130.979 280.321 130.36 283.498 130.128ZM271.53 168.2C277.181 167.788 282.229 165.637 286.673 161.747C291.114 157.815 294.757 152.324 297.603 145.274C297.667 145.021 297.715 144.83 297.748 144.704C297.777 144.536 297.786 144.369 297.773 144.204C297.743 143.792 297.279 143.39 296.379 142.999C295.48 142.609 294.317 142.3 292.89 142.072C291.464 141.844 289.835 141.693 288.005 141.619C286.213 141.501 284.41 141.508 282.595 141.64C279.666 141.854 276.876 142.555 274.226 143.743C271.575 144.932 269.258 146.428 267.275 148.231C265.291 150.034 263.737 152.035 262.611 154.232C261.486 156.429 261.006 158.662 261.171 160.931C261.348 163.364 262.377 165.239 264.256 166.553C266.176 167.865 268.601 168.414 271.53 168.2Z" fill="white"/>
<path d="M187.752 164.976C187.701 164.274 187.726 163.485 187.828 162.606C187.93 161.728 187.943 160.773 187.868 159.742C187.817 159.041 187.469 158.527 186.823 158.201C186.218 157.872 185.528 157.507 184.752 157.107C183.977 156.708 183.254 156.18 182.584 155.524C181.956 154.865 181.593 153.875 181.497 152.555C181.428 151.606 181.606 150.639 182.032 149.654C182.499 148.666 183.199 147.745 184.132 146.889C186.434 144.896 188.831 143.083 191.325 141.45C193.86 139.814 196.391 138.406 198.917 137.226C201.485 136.044 204.028 135.091 206.547 134.369C209.066 133.646 211.5 133.199 213.852 133.028C217.812 132.739 221.579 133.211 225.152 134.443C228.764 135.632 231.942 137.411 234.686 139.783C237.468 142.11 239.726 144.931 241.461 148.247C243.234 151.518 244.262 155.092 244.544 158.97C244.821 162.765 244.28 166.433 242.92 169.975C241.599 173.472 239.691 176.597 237.196 179.35C234.701 182.103 231.693 184.354 228.171 186.104C224.693 187.892 220.954 188.931 216.952 189.223C213.033 189.509 209.355 189.113 205.918 188.037C202.48 186.96 199.46 185.355 196.858 183.223C194.253 181.049 192.153 178.423 190.561 175.346C188.965 172.228 188.029 168.771 187.752 164.976ZM217.502 177.986C219.234 177.859 221.003 177.378 222.809 176.541C224.614 175.705 226.231 174.571 227.662 173.14C229.13 171.664 230.288 169.921 231.137 167.91C232.027 165.896 232.383 163.672 232.206 161.238C232.026 158.763 231.403 156.486 230.34 154.407C229.276 152.328 227.882 150.563 226.159 149.113C224.474 147.618 222.506 146.497 220.253 145.749C218.042 144.998 215.678 144.714 213.162 144.897C208.583 145.231 205.164 146.683 202.904 149.253C200.642 151.782 199.689 155.5 200.047 160.409C200.243 163.091 200.816 165.558 201.768 167.811C202.759 170.02 204.038 171.917 205.605 173.503C207.169 175.048 208.955 176.224 210.963 177.032C213.012 177.836 215.192 178.154 217.502 177.986Z" fill="white"/>
<path d="M152.29 142.74C152.461 142.811 152.712 142.834 153.042 142.81C153.949 142.744 154.36 142.113 154.272 140.916L152.87 121.672C152.692 119.239 153.102 117.467 154.1 116.357C155.138 115.245 156.937 114.596 159.494 114.409C162.093 114.22 163.968 114.622 165.119 115.617C166.269 116.611 166.939 118.408 167.129 121.006C167.201 121.996 167.246 123.465 167.263 125.413C167.278 127.32 167.291 129.496 167.304 131.942C167.357 134.385 167.425 137.013 167.505 139.828C167.583 142.6 167.721 145.348 167.919 148.071C168.226 152.278 168.779 155.888 169.579 158.898C170.379 161.909 171.389 164.386 172.609 166.329C173.826 168.231 175.213 169.622 176.77 170.504C178.325 171.345 180.03 171.697 181.886 171.562C182.918 171.487 183.837 171.296 184.644 170.988C185.489 170.636 186.489 170.418 187.644 170.334C188.469 170.274 189.181 170.657 189.781 171.484C190.419 172.267 190.781 173.257 190.868 174.453C190.946 175.526 190.69 176.561 190.099 177.557C189.549 178.551 188.743 179.44 187.681 180.222C186.659 181.001 185.442 181.65 184.028 182.168C182.611 182.644 181.119 182.94 179.551 183.054C176.169 183.3 173 182.495 170.044 180.637C167.086 178.737 164.749 175.693 163.034 171.506C162.862 170.854 162.631 170.54 162.343 170.561C162.013 170.585 161.769 170.934 161.61 171.609C160.716 174.702 159.45 177.531 157.812 180.097C156.213 182.619 154.28 184.834 152.014 186.741C149.786 188.603 147.282 190.092 144.501 191.207C141.762 192.319 138.825 192.989 135.69 193.218C132.39 193.458 129.317 193.123 126.472 192.21C123.672 191.336 121.21 190.002 119.089 188.207C116.965 186.371 115.249 184.174 113.943 181.615C112.634 179.015 111.866 176.168 111.641 173.074C111.352 169.114 111.905 165.32 113.3 161.694C114.694 158.067 116.699 154.852 119.315 152.049C121.969 149.201 125.117 146.877 128.76 145.078C132.403 143.278 136.349 142.223 140.597 141.913C142.33 141.787 144.176 141.797 146.136 141.945C148.093 142.051 150.144 142.316 152.29 142.74ZM137.292 181.904C139.643 181.733 141.689 181.065 143.428 179.902C145.21 178.735 146.744 177.317 148.033 175.647C149.359 173.933 150.448 172.091 151.3 170.121C152.149 168.11 152.816 166.175 153.303 164.315C153.789 162.454 154.124 160.792 154.308 159.327C154.491 157.862 154.561 156.82 154.516 156.201C154.483 155.748 154.33 155.365 154.059 155.053C153.784 154.7 153.392 154.438 152.882 154.268C151.747 154.06 150.574 153.897 149.362 153.778C148.148 153.617 146.957 153.497 145.79 153.416C144.623 153.335 143.5 153.293 142.422 153.288C141.385 153.281 140.433 153.309 139.566 153.372C137.091 153.552 134.87 154.088 132.903 154.977C130.936 155.867 129.28 157.045 127.935 158.512C126.632 159.976 125.657 161.685 125.012 163.639C124.364 165.553 124.12 167.623 124.283 169.851C124.427 171.831 124.847 173.604 125.541 175.171C126.274 176.694 127.197 177.974 128.31 179.013C129.463 180.049 130.805 180.822 132.336 181.332C133.866 181.843 135.518 182.033 137.292 181.904Z" fill="white"/>
<path d="M75.3722 120.975C75.3683 120.353 75.45 119.767 75.6172 119.216C75.7843 118.664 76.1004 118.164 76.5654 117.716C77.0686 117.223 77.7443 116.821 78.5925 116.51C79.4408 116.2 80.5249 115.996 81.845 115.9C82.9175 115.822 83.8094 116.11 84.5205 116.763C85.2287 117.375 85.6308 118.341 85.727 119.661L85.8815 128.607C88.5869 128.742 90.7459 129.061 92.3586 129.566C93.9713 130.07 94.8122 130.797 94.8813 131.746C94.9084 132.117 94.8796 132.575 94.7949 133.121C94.7072 133.625 94.4374 134.474 93.9853 135.668C93.4859 136.783 92.9258 137.632 92.3048 138.216C91.7221 138.757 90.8945 139.066 89.822 139.144L86.1093 139.414L86.3905 153.515C88.7234 154.796 91.1286 156.218 93.6062 157.779C96.1221 159.296 98.401 160.975 100.443 162.817C102.526 164.656 104.268 166.644 105.668 168.781C107.064 170.877 107.85 173.122 108.024 175.514C108.22 178.196 107.774 180.613 106.687 182.766C105.597 184.877 104.132 186.684 102.292 188.187C100.494 189.686 98.4443 190.873 96.1441 191.745C93.8851 192.615 91.6418 193.131 89.4142 193.293C89.0429 193.32 88.6717 193.347 88.3004 193.374C87.9291 193.401 87.5342 193.389 87.1157 193.336L87.4144 204.263C87.4183 204.885 87.3366 205.471 87.1694 206.023C87.0023 206.574 86.6862 207.074 86.2213 207.522C85.7593 208.012 85.0836 208.414 84.1941 208.728C83.3458 209.038 82.241 209.243 80.8797 209.342C79.8072 209.421 78.9153 209.133 78.2042 208.48C77.5343 207.824 77.1513 206.836 77.055 205.516L76.7919 191.663C74.4539 190.879 72.2231 189.86 70.0995 188.605C67.9759 187.349 66.0864 185.891 64.4307 184.228C62.8134 182.521 61.4949 180.647 60.4753 178.607C59.4556 176.566 58.8616 174.391 58.6933 172.08C58.6271 171.173 58.6229 170.261 58.6805 169.344C58.7351 168.387 58.9003 167.524 59.1762 166.758C59.4934 165.988 59.9242 165.355 60.4686 164.86C61.0131 164.364 61.7597 164.081 62.7085 164.012C63.0385 163.988 63.3303 164.008 63.5838 164.073C63.8756 164.093 64.1895 164.132 64.5255 164.191L65.6663 164.481C66.1261 164.53 66.6141 164.681 67.1301 164.934C67.6432 165.145 68.1195 165.422 68.5591 165.763C68.9987 166.104 69.3602 166.513 69.6438 166.99C69.9687 167.464 70.1521 167.99 70.1942 168.567C70.3536 170.754 70.9959 172.739 72.1213 174.523C73.2436 176.266 74.7222 177.776 76.557 179.052L76.1244 161.168C73.4908 159.743 70.9869 158.391 68.6128 157.112C66.2388 155.834 64.1343 154.556 62.2995 153.28C60.4617 151.963 58.9745 150.619 57.838 149.251C56.7015 147.882 56.0716 146.352 55.9483 144.661C55.804 142.681 56.2935 140.862 57.4168 139.204C58.5783 137.502 60.1071 136.001 62.003 134.702C63.8959 133.361 66.0322 132.231 68.4119 131.311C70.7916 130.391 73.1467 129.701 75.477 129.241L75.3722 120.975ZM86.9768 182.896C87.5603 182.936 88.1424 182.956 88.7229 182.955C89.3034 182.954 89.8825 182.933 90.46 182.891C91.2025 182.837 91.9405 182.721 92.6741 182.543C93.4458 182.321 94.1306 182.043 94.7283 181.709C95.3643 181.331 95.869 180.858 96.2424 180.292C96.6158 179.726 96.774 179.051 96.7169 178.267C96.6567 177.442 96.3209 176.533 95.7095 175.541C95.1363 174.505 94.3775 173.482 93.433 172.472C92.5268 171.418 91.4792 170.417 90.2903 169.466C89.1013 168.516 87.8801 167.693 86.6267 166.996L86.9768 182.896ZM69.5782 143.045C69.6173 143.582 69.842 144.104 70.2524 144.614C70.6597 145.082 71.1702 145.542 71.7838 145.995C72.3944 146.407 73.0654 146.793 73.7967 147.155C74.528 147.516 75.2373 147.858 75.9244 148.181L75.6372 139.12C74.8594 139.26 74.0846 139.441 73.3129 139.663C72.5794 139.841 71.9344 140.095 71.3779 140.426C70.8184 140.716 70.3681 141.08 70.0269 141.52C69.6826 141.918 69.5331 142.427 69.5782 143.045Z" fill="white"/>
<path d="M396.996 66.6442C396.447 66.5964 396.006 66.2383 395.671 65.5698C395.337 64.9013 395.17 64.1612 395.17 63.3495C395.17 62.9675 395.206 62.5974 395.277 62.2393C395.325 61.8573 395.421 61.5231 395.564 61.2366C395.707 60.9501 395.886 60.7233 396.101 60.5561C396.316 60.3651 396.567 60.2696 396.853 60.2696C397.736 60.2696 398.751 60.2458 399.897 60.198C401.043 60.1264 402.273 60.0548 403.586 59.9832C404.254 59.9115 404.624 59.5176 404.696 58.8014C404.911 55.3395 405.209 52.3552 405.591 49.8484C405.973 47.3415 406.439 45.2286 406.988 43.5096C407.537 41.7668 408.158 40.3582 408.85 39.2838C409.566 38.2094 410.354 37.3858 411.214 36.8128C411.476 36.6218 411.787 36.4308 412.145 36.2398C412.503 36.0249 412.837 35.9175 413.148 35.9175C413.744 35.9175 414.365 36.0727 415.01 36.383C415.678 36.6695 416.287 37.0515 416.836 37.529C417.409 37.9826 417.875 38.5079 418.233 39.1047C418.591 39.6777 418.77 40.2507 418.77 40.8237C418.77 41.0386 418.722 41.2177 418.627 41.3609C418.531 41.4803 418.412 41.5997 418.269 41.719C417.338 42.4114 416.514 43.1873 415.798 44.0468C415.081 44.9063 414.473 45.9568 413.971 47.1983C413.47 48.4397 413.052 49.9319 412.718 51.6748C412.384 53.4176 412.133 55.5186 411.966 57.9777C411.966 58.3597 412.025 58.6462 412.145 58.8372C412.288 59.0043 412.539 59.0879 412.897 59.0879C413.828 59.0879 414.759 59.0162 415.69 58.873C416.645 58.7297 417.552 58.5865 418.412 58.4432C419.271 58.2761 420.083 58.1209 420.847 57.9777C421.611 57.8344 422.292 57.7628 422.888 57.7628C423.318 57.7628 423.629 58.0254 423.82 58.5507C424.034 59.052 424.142 59.6728 424.142 60.4129C424.142 60.8426 424.106 61.2843 424.034 61.7379C423.963 62.1916 423.843 62.5974 423.676 62.9556C423.533 63.3137 423.342 63.624 423.103 63.8867C422.865 64.1254 422.566 64.2687 422.208 64.3164L412.682 65.3191C412.181 65.3908 411.87 65.5937 411.751 65.9279C411.655 66.2622 411.608 66.7278 411.608 67.3246C411.608 72.6009 411.739 77.1371 412.002 80.9332C412.264 84.7293 412.551 87.9165 412.861 90.495C413.195 93.0973 413.494 95.1386 413.756 96.6188C414.019 98.123 414.15 99.2092 414.15 99.8777C414.15 100.379 413.947 100.833 413.542 101.239C413.16 101.644 412.658 101.991 412.037 102.277C411.441 102.564 410.784 102.779 410.068 102.922C409.351 103.089 408.683 103.172 408.062 103.172C407.465 103.172 406.928 103.065 406.451 102.85C405.997 102.659 405.734 102.325 405.663 101.847C405.424 100.176 405.221 98.3378 405.054 96.3323C404.887 94.3508 404.744 92.1423 404.624 89.7071C404.529 87.2958 404.457 84.6576 404.409 81.7927C404.362 78.9038 404.338 75.7404 404.338 72.3025C404.338 71.4191 404.338 70.5596 404.338 69.724C404.338 68.8884 404.362 68.0528 404.409 67.2172C404.409 66.5009 404.015 66.1428 403.228 66.1428L396.996 66.6442Z" fill="white"/>
<path d="M362.402 74.4867C362.402 74.0808 362.45 73.6272 362.545 73.1258C362.641 72.6244 362.689 72.0753 362.689 71.4784C362.689 71.0726 362.51 70.7622 362.151 70.5473C361.817 70.3325 361.435 70.0937 361.005 69.8311C360.576 69.5685 360.182 69.2342 359.824 68.8284C359.489 68.4225 359.322 67.8376 359.322 67.0736C359.322 66.5245 359.466 65.9753 359.752 65.4262C360.062 64.8771 360.504 64.3757 361.077 63.9221C362.486 62.8716 363.942 61.9286 365.446 61.093C366.974 60.2573 368.49 59.553 369.994 58.9801C371.522 58.4071 373.026 57.9654 374.507 57.655C375.987 57.3446 377.407 57.1895 378.768 57.1895C381.06 57.1895 383.209 57.6192 385.214 58.4787C387.244 59.3143 388.998 60.4722 390.479 61.9525C391.983 63.4088 393.165 65.1278 394.024 67.1094C394.907 69.0671 395.349 71.1681 395.349 73.4123C395.349 75.6088 394.884 77.6978 393.952 79.6794C393.045 81.6371 391.816 83.3561 390.264 84.8363C388.712 86.3166 386.886 87.4864 384.785 88.3459C382.708 89.2293 380.511 89.6709 378.195 89.6709C375.927 89.6709 373.826 89.289 371.892 88.525C369.958 87.761 368.287 86.7105 366.879 85.3735C365.47 84.0127 364.372 82.413 363.584 80.5747C362.796 78.7125 362.402 76.6831 362.402 74.4867ZM378.983 83.2248C379.986 83.2248 381.024 83.0219 382.099 82.616C383.173 82.2101 384.152 81.6252 385.035 80.8612C385.943 80.0733 386.683 79.1183 387.256 77.9962C387.853 76.8741 388.151 75.6088 388.151 74.2002C388.151 72.7677 387.888 71.4307 387.363 70.1892C386.838 68.9477 386.11 67.8734 385.179 66.9661C384.271 66.035 383.185 65.3068 381.92 64.7816C380.678 64.2564 379.329 63.9937 377.873 63.9937C375.223 63.9937 373.193 64.6861 371.785 66.0708C370.376 67.4317 369.672 69.5327 369.672 72.3737C369.672 73.9256 369.899 75.37 370.352 76.707C370.83 78.0201 371.486 79.1661 372.322 80.145C373.158 81.0999 374.136 81.852 375.259 82.4011C376.405 82.9502 377.646 83.2248 378.983 83.2248Z" fill="white"/>
<path d="M337.943 59.5894C337.059 59.5894 336.283 59.8282 335.615 60.3057C334.946 60.7593 334.373 61.4039 333.896 62.2395C333.419 63.0512 333.025 64.0182 332.714 65.1403C332.404 66.2385 332.153 67.4442 331.962 68.7573C331.771 70.0704 331.64 71.4432 331.568 72.8757C331.497 74.3081 331.461 75.7526 331.461 77.2089C331.461 79.1189 331.532 81.005 331.676 82.8672C331.843 84.7056 331.926 86.4126 331.926 87.9883C331.926 89.015 331.544 89.8148 330.78 90.3877C330.016 90.9846 328.93 91.283 327.521 91.283C327.259 91.283 326.96 91.2592 326.626 91.2114C326.292 91.1637 325.97 91.0682 325.659 90.9249C325.373 90.7817 325.11 90.5787 324.871 90.3161C324.656 90.0774 324.537 89.7431 324.513 89.3134C324.298 87.2124 323.988 85.0637 323.582 82.8672C323.176 80.6707 322.663 78.4862 322.042 76.3136C321.445 74.1172 320.717 71.9446 319.858 69.7958C319.022 67.6471 318.055 65.5461 316.957 63.4929C316.766 63.1348 316.599 62.8006 316.456 62.4902C316.336 62.1798 316.276 61.8814 316.276 61.5949C316.276 61.2368 316.432 60.8548 316.742 60.4489C317.076 60.0192 317.482 59.6252 317.96 59.2671C318.461 58.909 318.998 58.6225 319.571 58.4076C320.168 58.1689 320.741 58.0495 321.29 58.0495C322.197 58.0495 322.997 58.6822 323.69 59.9475C324.382 61.189 325.027 63.1825 325.623 65.9281C325.743 66.4056 325.838 66.7399 325.91 66.9309C325.982 67.1219 326.077 67.2174 326.196 67.2174C326.459 67.2174 326.626 66.8115 326.698 65.9998C326.984 63.7317 327.474 61.7859 328.166 60.1624C328.858 58.5151 329.718 57.1661 330.745 56.1156C331.795 55.0413 332.989 54.2534 334.326 53.7521C335.687 53.2507 337.179 53 338.802 53C339.733 53 340.676 53.0836 341.631 53.2507C342.586 53.4178 343.446 53.6685 344.21 54.0027C344.974 54.337 345.595 54.7429 346.072 55.2203C346.55 55.6978 346.788 56.235 346.788 56.8319C346.788 57.2616 346.693 57.7749 346.502 58.3718C346.335 58.9448 346.108 59.5058 345.821 60.055C345.535 60.5802 345.201 61.0338 344.819 61.4158C344.461 61.7739 344.09 61.953 343.708 61.953C343.279 61.953 342.861 61.8336 342.455 61.5949C342.049 61.3323 341.608 61.0577 341.13 60.7712C340.676 60.4847 340.187 60.2221 339.662 59.9833C339.16 59.7207 338.587 59.5894 337.943 59.5894Z" fill="white"/>
<path d="M311.119 78.5336C311.812 77.9367 312.492 77.6383 313.16 77.6383C313.542 77.6383 313.889 77.7338 314.199 77.9248C314.509 78.1158 314.856 78.4142 315.238 78.8201C315.596 79.3692 315.846 79.8228 315.99 80.1809C316.157 80.5152 316.24 80.8494 316.24 81.1837C316.24 81.8999 315.882 82.5803 315.166 83.2249C314.02 84.1799 312.778 85.0394 311.442 85.8034C310.105 86.5435 308.708 87.1762 307.251 87.7014C305.795 88.2267 304.291 88.6206 302.739 88.8832C301.187 89.1697 299.647 89.313 298.119 89.313C296.186 89.313 294.371 89.0623 292.676 88.5609C290.981 88.0834 289.465 87.3911 288.128 86.4838C286.815 85.5766 285.705 84.4903 284.797 83.2249C283.89 81.9357 283.246 80.4913 282.864 78.8917C282.649 78.2232 282.446 77.7934 282.255 77.6025C282.088 77.3876 281.801 77.2801 281.395 77.2801C280.512 77.2801 279.831 77.0653 279.354 76.6355C278.876 76.2058 278.638 75.585 278.638 74.7733C278.638 74.4391 278.662 74.2242 278.709 74.1287L278.781 73.4124C278.9 72.553 279.127 71.9322 279.461 71.5502C279.82 71.1682 280.369 70.9772 281.109 70.9772H281.646C282.649 70.9772 283.353 70.5117 283.759 69.5806C284.499 67.9332 285.442 66.4291 286.588 65.0682C287.734 63.7074 289.023 62.5495 290.456 61.5945C291.888 60.6156 293.416 59.8636 295.04 59.3383C296.687 58.7892 298.358 58.5146 300.053 58.5146C301.82 58.5146 303.467 58.7773 304.995 59.3025C306.547 59.8039 307.896 60.5082 309.042 61.4154C310.188 62.3227 311.083 63.3851 311.728 64.6027C312.397 65.8203 312.731 67.1334 312.731 68.542C312.731 69.5209 312.54 70.4162 312.158 71.2279C311.776 72.0397 311.227 72.7559 310.51 73.3766C309.794 73.9735 308.923 74.4629 307.896 74.8449C306.893 75.2269 305.747 75.4776 304.458 75.597L292.031 76.8504C291.554 76.8504 291.16 76.9698 290.85 77.2085C290.563 77.4473 290.42 77.7696 290.42 78.1754C290.42 78.7962 290.647 79.3931 291.1 79.966C291.578 80.539 292.199 81.0523 292.963 81.506C293.75 81.9357 294.646 82.2819 295.648 82.5445C296.675 82.8071 297.726 82.9384 298.8 82.9384C299.826 82.9384 300.877 82.8429 301.951 82.6519C303.05 82.4371 304.124 82.1386 305.174 81.7566C306.249 81.3746 307.287 80.921 308.29 80.3958C309.293 79.8467 310.236 79.2259 311.119 78.5336ZM303.133 69.2941C303.491 69.2224 303.802 69.0553 304.064 68.7927C304.327 68.5062 304.458 68.16 304.458 67.7541C304.458 67.396 304.327 67.0618 304.064 66.7514C303.802 66.441 303.443 66.1665 302.99 65.9277C302.536 65.6651 302.011 65.4622 301.414 65.3189C300.817 65.1757 300.185 65.1041 299.516 65.1041C298.537 65.1041 297.535 65.2473 296.508 65.5338C295.481 65.8203 294.55 66.2023 293.715 66.6798C292.879 67.1334 292.199 67.6467 291.673 68.2197C291.148 68.7688 290.885 69.3179 290.885 69.8671C290.885 70.4162 291.22 70.6907 291.888 70.6907C292.294 70.6907 292.951 70.643 293.858 70.5475C294.765 70.452 295.768 70.3445 296.866 70.2252C297.964 70.0819 299.074 69.9267 300.197 69.7596C301.319 69.5925 302.298 69.4373 303.133 69.2941Z" fill="white"/>
<path d="M254.035 45.0136C254.035 43.7483 254.393 42.8649 255.109 42.3635C255.825 41.8383 257.007 41.5757 258.655 41.5757C259.251 41.5757 259.753 41.6354 260.159 41.7547C260.588 41.8502 260.947 42.0412 261.233 42.3277C261.543 42.6142 261.782 42.9962 261.949 43.4737C262.14 43.9273 262.296 44.5123 262.415 45.2285C262.701 47.4489 263.012 49.7408 263.346 52.1044C263.704 54.468 264.074 56.8435 264.456 59.231C264.599 60.3054 265.16 60.8425 266.139 60.8425C266.402 60.8425 266.832 60.8187 267.429 60.7709C268.049 60.6993 268.777 60.6277 269.613 60.5561C270.449 60.4606 271.344 60.3651 272.299 60.2696C273.278 60.1741 274.245 60.0905 275.2 60.0189C276.179 59.9234 277.098 59.8517 277.957 59.804C278.841 59.7324 279.617 59.6966 280.285 59.6966C280.81 59.6966 281.228 59.804 281.539 60.0189C281.849 60.2099 282.088 60.4725 282.255 60.8067C282.446 61.1171 282.565 61.4752 282.613 61.8811C282.684 62.2631 282.72 62.657 282.72 63.0629C282.72 63.421 282.649 63.7911 282.505 64.1731C282.386 64.5551 282.207 64.9012 281.968 65.2116C281.753 65.4981 281.479 65.7369 281.145 65.9279C280.81 66.1189 280.428 66.2144 279.999 66.2144C277.921 66.2144 275.821 66.286 273.696 66.4292C271.595 66.5486 269.494 66.7157 267.393 66.9306C266.318 67.0738 265.781 67.611 265.781 68.5421C265.781 68.6138 265.793 68.7093 265.817 68.8286C265.841 68.9241 265.853 69.0077 265.853 69.0793C266.139 71.1564 266.402 73.1022 266.641 74.9167C266.903 76.7311 267.118 78.3546 267.285 79.7871C267.476 81.1957 267.62 82.3775 267.715 83.3325C267.834 84.2636 267.894 84.8843 267.894 85.1947C267.894 86.0542 267.811 86.7704 267.643 87.3434C267.476 87.9403 267.202 88.4178 266.82 88.7759C266.438 89.1579 265.924 89.4205 265.28 89.5638C264.659 89.7309 263.871 89.8145 262.916 89.8145C262.009 89.8145 261.341 89.5996 260.911 89.1699C260.481 88.7401 260.242 88.0836 260.195 87.2002C260.051 84.383 259.824 81.5538 259.514 78.7127C259.204 75.8478 258.846 72.9948 258.44 70.1537C258.225 69.1271 257.688 68.6138 256.828 68.6138C256.757 68.6138 256.673 68.6257 256.578 68.6496C256.482 68.6734 256.398 68.6854 256.327 68.6854C254.847 69.0196 253.45 69.3539 252.137 69.6881C250.824 70.0224 249.594 70.3805 248.448 70.7625C247.804 70.9773 247.231 71.1325 246.729 71.228C246.228 71.2997 245.774 71.3355 245.368 71.3355C244.819 71.3355 244.413 71.0967 244.151 70.6192C243.888 70.1179 243.757 69.4971 243.757 68.757C243.757 68.4944 243.781 68.1959 243.828 67.8617C243.876 67.5036 243.972 67.1574 244.115 66.8232C244.234 66.465 244.425 66.1427 244.688 65.8562C244.927 65.5459 245.261 65.2952 245.691 65.1042C246.693 64.6983 248.03 64.2805 249.702 63.8508C251.373 63.3971 253.259 62.9793 255.36 62.5973C255.837 62.478 256.207 62.287 256.47 62.0243C256.757 61.7378 256.9 61.32 256.9 60.7709C256.9 60.6515 256.9 60.5322 256.9 60.4128C256.9 60.2696 256.876 60.1263 256.828 59.9831C256.446 57.7866 256.076 55.7931 255.718 54.0025C255.384 52.188 255.085 50.6361 254.823 49.3469C254.584 48.0577 254.393 47.043 254.25 46.3029C254.107 45.5628 254.035 45.133 254.035 45.0136Z" fill="white"/>
<path d="M232.619 55.292C234.219 55.292 235.866 55.5069 237.561 55.9366C239.256 56.3425 240.808 56.8797 242.217 57.5481C243.625 58.1928 244.783 58.9209 245.691 59.7327C246.598 60.5444 247.051 61.3323 247.051 62.0963C247.051 62.4783 246.884 62.908 246.55 63.3855C246.216 63.8391 245.81 64.2808 245.332 64.7106C244.855 65.1164 244.33 65.4626 243.757 65.7491C243.208 66.0117 242.718 66.143 242.288 66.143C241.715 66.143 241.071 65.9043 240.355 65.4268C239.662 64.9493 238.886 64.4241 238.027 63.8511C237.191 63.2542 236.272 62.717 235.269 62.2395C234.267 61.762 233.18 61.5233 232.01 61.5233C231.246 61.5233 230.614 61.7143 230.112 62.0963C229.635 62.4544 229.396 62.9677 229.396 63.6362C229.396 64.2331 229.683 64.8419 230.256 65.4626C230.829 66.0595 231.581 66.6802 232.512 67.3248C233.467 67.9694 234.541 68.6499 235.735 69.3661C236.929 70.0824 238.146 70.8463 239.388 71.6581C240.653 72.4698 241.883 73.3532 243.076 74.3082C244.27 75.2632 245.332 76.3017 246.264 77.4238C247.219 78.5459 247.983 79.7755 248.556 81.1125C249.129 82.4256 249.415 83.858 249.415 85.4099C249.415 86.7469 249.176 87.9645 248.699 89.0627C248.221 90.161 247.541 91.104 246.658 91.8919C245.774 92.6797 244.724 93.2885 243.506 93.7183C242.288 94.148 240.951 94.3629 239.495 94.3629C237.657 94.3629 235.962 94.0764 234.41 93.5034C232.858 92.9543 231.521 92.1903 230.399 91.2114C229.277 90.2326 228.393 89.0627 227.749 87.7019C227.128 86.341 226.818 84.8488 226.818 83.2254C226.818 81.1244 227.188 79.5964 227.928 78.6414C228.692 77.6864 229.886 77.2089 231.509 77.2089C232.512 77.2089 233.312 77.3999 233.908 77.7819C234.505 78.1639 234.804 78.6295 234.804 79.1786C234.804 79.4651 234.756 79.7635 234.66 80.0739C234.565 80.3604 234.458 80.6708 234.338 81.005C234.243 81.3154 234.147 81.6496 234.052 82.0078C233.98 82.3659 233.944 82.724 233.944 83.0821C233.944 83.7029 234.087 84.2997 234.374 84.8727C234.66 85.4457 235.042 85.9471 235.52 86.3768C236.021 86.8304 236.594 87.1886 237.239 87.4512C237.884 87.7138 238.564 87.8451 239.28 87.8451C241.19 87.8451 242.145 87.0572 242.145 85.4815C242.145 84.24 241.656 83.0702 240.677 81.9719C239.698 80.8498 238.468 79.7635 236.988 78.713C235.508 77.6387 233.908 76.5643 232.189 75.49C230.494 74.4156 228.907 73.2935 227.426 72.1236C225.946 70.9538 224.717 69.7123 223.738 68.3992C222.759 67.0622 222.27 65.6178 222.27 64.0659C222.27 62.7767 222.532 61.5949 223.057 60.5205C223.607 59.4462 224.347 58.527 225.278 57.763C226.209 56.9752 227.295 56.3664 228.537 55.9366C229.802 55.5069 231.163 55.292 232.619 55.292Z" fill="white"/>
<path d="M213.173 49.848C212.481 49.848 211.824 49.7525 211.204 49.5615C210.607 49.3466 210.081 49.0601 209.628 48.702C209.198 48.32 208.852 47.8783 208.589 47.377C208.327 46.8756 208.195 46.3265 208.195 45.7296C208.195 44.7269 208.589 43.9151 209.377 43.2944C210.189 42.6737 211.263 42.3633 212.6 42.3633C213.221 42.3633 213.818 42.4827 214.391 42.7214C214.964 42.9363 215.465 43.2347 215.895 43.6167C216.349 43.9987 216.707 44.4523 216.969 44.9776C217.232 45.4789 217.363 46.0042 217.363 46.5533C217.363 47.5799 216.981 48.3916 216.217 48.9885C215.477 49.5615 214.462 49.848 213.173 49.848ZM208.267 60.7707C208.267 59.935 208.625 59.2546 209.341 58.7294C210.081 58.1803 211.048 57.9057 212.242 57.9057C214.391 57.9057 215.537 58.6458 215.68 60.126C215.776 61.1527 215.871 62.3106 215.967 63.5998C216.086 64.889 216.193 66.2618 216.289 67.7182C216.408 69.1507 216.504 70.6428 216.575 72.1947C216.671 73.7227 216.754 75.2387 216.826 76.7428C216.898 78.223 216.957 79.6555 217.005 81.0403C217.053 82.425 217.077 83.6903 217.077 84.8363C217.077 86.0301 216.647 86.9254 215.787 87.5222C214.952 88.1191 213.722 88.4175 212.099 88.4175C211.359 88.4175 210.774 88.2385 210.344 87.8804C209.938 87.5461 209.735 87.0447 209.735 86.3762C209.735 83.0815 209.652 80.0017 209.485 77.1367C209.341 74.2479 209.174 71.6814 208.983 69.4372C208.816 67.1929 208.649 65.3307 208.482 63.8505C208.339 62.3464 208.267 61.3198 208.267 60.7707Z" fill="white"/>
<path d="M189.717 55.292C191.316 55.292 192.964 55.5069 194.659 55.9366C196.354 56.3425 197.906 56.8797 199.314 57.5481C200.723 58.1928 201.881 58.9209 202.788 59.7327C203.695 60.5444 204.149 61.3323 204.149 62.0963C204.149 62.4783 203.982 62.908 203.648 63.3855C203.313 63.8391 202.908 64.2808 202.43 64.7106C201.953 65.1164 201.427 65.4626 200.854 65.7491C200.305 66.0117 199.816 66.143 199.386 66.143C198.813 66.143 198.168 65.9043 197.452 65.4268C196.76 64.9493 195.984 64.4241 195.124 63.8511C194.289 63.2542 193.37 62.717 192.367 62.2395C191.364 61.762 190.278 61.5233 189.108 61.5233C188.344 61.5233 187.711 61.7143 187.21 62.0963C186.732 62.4544 186.494 62.9677 186.494 63.6362C186.494 64.2331 186.78 64.8419 187.353 65.4626C187.926 66.0595 188.678 66.6802 189.609 67.3248C190.564 67.9694 191.639 68.6499 192.832 69.3661C194.026 70.0824 195.244 70.8463 196.485 71.6581C197.751 72.4698 198.98 73.3532 200.174 74.3082C201.368 75.2632 202.43 76.3017 203.361 77.4238C204.316 78.5459 205.08 79.7755 205.653 81.1125C206.226 82.4256 206.513 83.858 206.513 85.4099C206.513 86.7469 206.274 87.9645 205.796 89.0627C205.319 90.161 204.638 91.104 203.755 91.8919C202.872 92.6797 201.821 93.2885 200.604 93.7183C199.386 94.148 198.049 94.3629 196.593 94.3629C194.754 94.3629 193.059 94.0764 191.507 93.5034C189.956 92.9543 188.619 92.1903 187.496 91.2114C186.374 90.2326 185.491 89.0627 184.846 87.7019C184.226 86.341 183.915 84.8488 183.915 83.2254C183.915 81.1244 184.285 79.5964 185.025 78.6414C185.789 77.6864 186.983 77.2089 188.607 77.2089C189.609 77.2089 190.409 77.3999 191.006 77.7819C191.603 78.1639 191.901 78.6295 191.901 79.1786C191.901 79.4651 191.854 79.7635 191.758 80.0739C191.663 80.3604 191.555 80.6708 191.436 81.005C191.34 81.3154 191.245 81.6496 191.149 82.0078C191.078 82.3659 191.042 82.724 191.042 83.0821C191.042 83.7029 191.185 84.2997 191.472 84.8727C191.758 85.4457 192.14 85.9471 192.618 86.3768C193.119 86.8304 193.692 87.1886 194.337 87.4512C194.981 87.7138 195.662 87.8451 196.378 87.8451C198.288 87.8451 199.243 87.0572 199.243 85.4815C199.243 84.24 198.753 83.0702 197.775 81.9719C196.796 80.8498 195.566 79.7635 194.086 78.713C192.606 77.6387 191.006 76.5643 189.287 75.49C187.592 74.4156 186.004 73.2935 184.524 72.1236C183.044 70.9538 181.814 69.7123 180.835 68.3992C179.857 67.0622 179.367 65.6178 179.367 64.0659C179.367 62.7767 179.63 61.5949 180.155 60.5205C180.704 59.4462 181.444 58.527 182.375 57.763C183.306 56.9752 184.393 56.3664 185.634 55.9366C186.9 55.5069 188.26 55.292 189.717 55.292Z" fill="white"/>
<path d="M155.981 78.5336C156.674 77.9367 157.354 77.6383 158.023 77.6383C158.405 77.6383 158.751 77.7338 159.061 77.9248C159.372 78.1158 159.718 78.4142 160.1 78.8201C160.458 79.3692 160.709 79.8228 160.852 80.1809C161.019 80.5152 161.103 80.8494 161.103 81.1837C161.103 81.8999 160.744 82.5803 160.028 83.2249C158.882 84.1799 157.641 85.0394 156.304 85.8034C154.967 86.5435 153.57 87.1762 152.114 87.7014C150.657 88.2267 149.153 88.6206 147.601 88.8832C146.05 89.1697 144.51 89.313 142.982 89.313C141.048 89.313 139.233 89.0623 137.538 88.5609C135.843 88.0834 134.327 87.3911 132.99 86.4838C131.677 85.5766 130.567 84.4903 129.66 83.2249C128.752 81.9357 128.108 80.4913 127.726 78.8917C127.511 78.2232 127.308 77.7934 127.117 77.6025C126.95 77.3876 126.663 77.2801 126.258 77.2801C125.374 77.2801 124.694 77.0653 124.216 76.6355C123.739 76.2058 123.5 75.585 123.5 74.7733C123.5 74.4391 123.524 74.2242 123.572 74.1287L123.643 73.4124C123.763 72.553 123.989 71.9322 124.324 71.5502C124.682 71.1682 125.231 70.9772 125.971 70.9772H126.508C127.511 70.9772 128.215 70.5117 128.621 69.5806C129.361 67.9332 130.304 66.4291 131.45 65.0682C132.596 63.7074 133.885 62.5495 135.318 61.5945C136.75 60.6156 138.278 59.8636 139.902 59.3383C141.549 58.7892 143.22 58.5146 144.916 58.5146C146.682 58.5146 148.33 58.7773 149.858 59.3025C151.409 59.8039 152.758 60.5082 153.904 61.4154C155.05 62.3227 155.946 63.3851 156.59 64.6027C157.259 65.8203 157.593 67.1334 157.593 68.542C157.593 69.5209 157.402 70.4162 157.02 71.2279C156.638 72.0397 156.089 72.7559 155.373 73.3766C154.656 73.9735 153.785 74.4629 152.758 74.8449C151.756 75.2269 150.61 75.4776 149.32 75.597L136.894 76.8504C136.416 76.8504 136.022 76.9698 135.712 77.2085C135.425 77.4473 135.282 77.7696 135.282 78.1754C135.282 78.7962 135.509 79.3931 135.963 79.966C136.44 80.539 137.061 81.0523 137.825 81.506C138.613 81.9357 139.508 82.2819 140.511 82.5445C141.537 82.8071 142.588 82.9384 143.662 82.9384C144.689 82.9384 145.739 82.8429 146.814 82.6519C147.912 82.4371 148.986 82.1386 150.037 81.7566C151.111 81.3746 152.15 80.921 153.152 80.3958C154.155 79.8467 155.098 79.2259 155.981 78.5336ZM147.995 69.2941C148.354 69.2224 148.664 69.0553 148.927 68.7927C149.189 68.5062 149.32 68.16 149.32 67.7541C149.32 67.396 149.189 67.0618 148.927 66.7514C148.664 66.441 148.306 66.1665 147.852 65.9277C147.399 65.6651 146.873 65.4622 146.276 65.3189C145.68 65.1757 145.047 65.1041 144.378 65.1041C143.4 65.1041 142.397 65.2473 141.37 65.5338C140.344 65.8203 139.412 66.2023 138.577 66.6798C137.741 67.1334 137.061 67.6467 136.536 68.2197C136.01 68.7688 135.748 69.3179 135.748 69.8671C135.748 70.4162 136.082 70.6907 136.75 70.6907C137.156 70.6907 137.813 70.643 138.72 70.5475C139.627 70.452 140.63 70.3445 141.728 70.2252C142.827 70.0819 143.937 69.9267 145.059 69.7596C146.181 69.5925 147.16 69.4373 147.995 69.2941Z" fill="white"/>
<path d="M85.1104 51.8897C85.1104 49.3112 86.7816 48.022 90.124 48.022C90.697 48.022 91.1984 48.1772 91.6281 48.4875C92.0579 48.7979 92.3086 49.2276 92.3802 49.7768C92.5951 51.2331 92.7861 52.6775 92.9532 54.11C93.1203 55.5425 93.2755 57.154 93.4187 58.9446C93.5859 60.7114 93.741 62.7646 93.8843 65.1043C94.0514 67.4201 94.2305 70.1896 94.4215 73.4127C94.4215 73.7469 94.4692 73.9857 94.5647 74.1289C94.6841 74.2722 94.8154 74.3438 94.9587 74.3438C95.1735 74.3438 95.3884 74.1289 95.6033 73.6992C96.415 71.9086 97.3222 70.309 98.325 68.9004C99.3277 67.4679 100.402 66.2622 101.548 65.2834C102.694 64.2806 103.9 63.5286 105.165 63.0272C106.454 62.502 107.767 62.2393 109.104 62.2393C110.871 62.2393 112.471 62.7407 113.903 63.7434C115.336 64.7462 116.553 66.1667 117.556 68.0051C118.559 69.8434 119.335 72.0757 119.884 74.7019C120.433 77.3043 120.707 80.217 120.707 83.4401C120.707 84.3234 120.636 85.0516 120.493 85.6246C120.373 86.1737 120.158 86.6154 119.848 86.9496C119.538 87.2839 119.108 87.5107 118.559 87.6301C118.01 87.7733 117.329 87.8449 116.517 87.8449C115.395 87.8449 114.584 87.6301 114.082 87.2003C113.605 86.7706 113.366 86.1021 113.366 85.1948C113.366 82.9506 113.211 80.8377 112.9 78.8561C112.614 76.8506 112.208 75.0959 111.683 73.5918C111.158 72.0876 110.537 70.8939 109.821 70.0106C109.128 69.1272 108.376 68.6855 107.564 68.6855C105.726 68.6855 103.888 70.1777 102.049 73.162C100.235 76.1463 98.3369 80.6467 96.3553 86.6631C96.1643 87.2123 95.9495 87.6659 95.7107 88.024C95.472 88.3821 95.1855 88.6686 94.8512 88.8835C94.5409 89.0984 94.1589 89.2416 93.7052 89.3132C93.2516 89.4087 92.7144 89.4565 92.0937 89.4565C90.8283 89.4565 89.9211 89.2177 89.372 88.7402C88.8467 88.2627 88.5602 87.4749 88.5125 86.3766C88.3692 82.2224 88.1066 78.2593 87.7246 74.4871C87.3665 70.691 86.9845 67.265 86.5786 64.209C86.1966 61.1292 85.8505 58.5268 85.5401 56.402C85.2536 54.2533 85.1104 52.7492 85.1104 51.8897Z" fill="white"/>
<path d="M64.1599 56.6169C63.9689 56.6169 63.5988 56.6646 63.0497 56.7601C62.5245 56.8318 61.9037 56.9273 61.1875 57.0466C60.4712 57.166 59.7192 57.3093 58.9313 57.4764C58.1435 57.6196 57.4033 57.7509 56.711 57.8703C56.0186 57.9897 55.4217 58.0971 54.9204 58.1926C54.3951 58.2642 54.0489 58.3001 53.8818 58.3001C52.2822 58.3001 51.4824 57.4644 51.4824 55.7932C51.4824 55.3396 51.5302 54.8979 51.6257 54.4682C51.6973 54.0145 51.8405 53.6087 52.0554 53.2506C52.2703 52.8686 52.5568 52.5463 52.9149 52.2836C53.273 52.021 53.7266 51.842 54.2758 51.7465C57.0691 51.3167 59.8505 50.8631 62.62 50.3856C65.3894 49.9081 68.1828 49.4067 71 48.8815C71.6207 48.7621 72.1818 48.6547 72.6831 48.5592C73.1845 48.4398 73.7456 48.2846 74.3663 48.0936C75.0348 47.9026 75.763 47.7236 76.5508 47.5564C77.3387 47.3654 78.1266 47.1983 78.9144 47.0551C79.7262 46.9118 80.5021 46.7925 81.2422 46.697C82.0062 46.6015 82.6986 46.5537 83.3193 46.5537C84.0833 46.5537 84.6563 46.8044 85.0383 47.3058C85.4441 47.7833 85.6471 48.4637 85.6471 49.347C85.6471 49.8007 85.6113 50.2423 85.5396 50.6721C85.468 51.078 85.3367 51.448 85.1457 51.7823C84.9547 52.1165 84.6921 52.3911 84.3579 52.6059C84.0236 52.8208 83.5939 52.9521 83.0686 52.9999C81.7078 53.1909 80.2514 53.4296 78.6996 53.7161C77.1477 53.9787 75.7988 54.2772 74.6528 54.6114C74.1753 54.7547 73.8172 54.9934 73.5784 55.3277C73.3397 55.638 73.1845 56.032 73.1129 56.5095C73.0413 56.9631 72.9935 57.4286 72.9696 57.9061C72.9696 58.3597 72.9696 58.8014 72.9696 59.2312C72.9696 60.2339 73.0054 61.2366 73.0771 62.2394C73.1726 63.2421 73.2561 64.2448 73.3278 65.2476C73.5426 68.6855 73.8649 72.0877 74.2947 75.454C74.7483 78.8203 75.2377 82.2225 75.763 85.6604C75.8107 85.7798 75.8346 85.8992 75.8346 86.0186C75.8346 86.1379 75.8346 86.2573 75.8346 86.3767C75.8346 87.6898 75.0945 88.6209 73.6142 89.17L72.0027 89.6714C71.573 89.8146 71.1552 89.8863 70.7493 89.8863C70.1285 89.8863 69.6272 89.6833 69.2452 89.2774C68.8632 88.8954 68.6125 88.3225 68.4931 87.5585C67.8246 83.452 67.2397 79.3695 66.7383 75.3108C66.237 71.2282 65.9147 67.1217 65.7714 62.9914C65.7237 62.3229 65.6879 61.5948 65.664 60.8069C65.6401 60.019 65.6282 59.2073 65.6282 58.3717C65.6282 57.2018 65.1387 56.6169 64.1599 56.6169Z" fill="white"/>
<defs>
<filter id="filter0_f_260_74" x="0.223423" y="0.051548" width="248.125" height="157.153" filterUnits="userSpaceOnUse" color-interpolation-filters="sRGB">
<feFlood flood-opacity="0" result="BackgroundImageFix"/>
<feBlend mode="normal" in="SourceGraphic" in2="BackgroundImageFix" result="shape"/>
<feGaussianBlur stdDeviation="19.3883" result="effect1_foregroundBlur_260_74"/>
</filter>
<filter id="filter1_f_260_74" x="87.3411" y="94.1925" width="227.106" height="134.999" filterUnits="userSpaceOnUse" color-interpolation-filters="sRGB">
<feFlood flood-opacity="0" result="BackgroundImageFix"/>
<feBlend mode="normal" in="SourceGraphic" in2="BackgroundImageFix" result="shape"/>
<feGaussianBlur stdDeviation="12.6791" result="effect1_foregroundBlur_260_74"/>
</filter>
<filter id="filter2_f_260_74" x="191.958" y="135.13" width="227.106" height="134.999" filterUnits="userSpaceOnUse" color-interpolation-filters="sRGB">
<feFlood flood-opacity="0" result="BackgroundImageFix"/>
<feBlend mode="normal" in="SourceGraphic" in2="BackgroundImageFix" result="shape"/>
<feGaussianBlur stdDeviation="12.6791" result="effect1_foregroundBlur_260_74"/>
</filter>
<filter id="filter3_f_260_74" x="283.953" y="23.5729" width="170.478" height="107.941" filterUnits="userSpaceOnUse" color-interpolation-filters="sRGB">
<feFlood flood-opacity="0" result="BackgroundImageFix"/>
<feBlend mode="normal" in="SourceGraphic" in2="BackgroundImageFix" result="shape"/>
<feGaussianBlur stdDeviation="12.6791" result="effect1_foregroundBlur_260_74"/>
</filter>
</defs>
</svg>
