<svg width="126" height="122" viewBox="0 0 126 122" fill="none" xmlns="http://www.w3.org/2000/svg">
<path d="M113.571 73.8519C107.114 100.319 73.3256 114.809 45.8358 108.103C18.346 101.397 6.85556 70.0513 13.3122 43.584C19.7688 17.1166 50.1136 6.38391 77.6034 13.0899C105.093 19.796 120.028 47.3845 113.571 73.8519Z" fill="#FFFFFE"/>
<path fill-rule="evenodd" clip-rule="evenodd" d="M83.4014 35.0212C84.0413 34.7499 84.7417 34.6564 85.4297 34.7503C86.1177 34.8442 86.7681 35.1221 87.3133 35.5551C87.8585 35.9881 88.2785 36.5604 88.5296 37.2124C88.7806 37.8644 88.8536 38.5722 88.7409 39.2623L82.8679 75.1441C82.2982 78.6053 78.5279 80.5901 75.3765 78.8661C72.7404 77.4237 68.825 75.2015 65.3033 72.8827C63.5424 71.7221 58.1485 68.0053 58.8114 65.3605C59.3811 63.0992 68.4444 54.6014 73.6234 49.5492C75.6562 47.5644 74.7291 46.4193 72.3286 48.2451C66.3676 52.7783 56.7967 59.6719 53.6324 61.6124C50.8409 63.3235 49.3856 63.6156 47.6454 63.3235C44.4707 62.7914 41.5264 61.9672 39.1233 60.963C35.8761 59.6067 36.0341 55.11 39.1208 53.8007L83.4014 35.0212Z" fill="#422834"/>
</svg>
