<svg width="79" height="76" viewBox="0 0 79 76" fill="none" xmlns="http://www.w3.org/2000/svg">
<path d="M74.2769 33.8785C76.5649 51.8639 59.0159 68.9124 40.3357 71.2889C21.6556 73.6653 7.05275 56.9203 4.76473 38.9349C2.4767 20.9494 21.6555 6.47987 40.3357 4.10346C59.0159 1.72704 71.9889 15.8931 74.2769 33.8785Z" fill="#FFFFFE"/>
<path d="M48.7722 16.5829L54.6854 15.879L43.4602 31.6461L60.9638 49.1957L49.0636 50.6123L38.3461 39.9791L29.0777 52.9914L23.1613 53.6957L35.1683 36.8305L18.4016 20.1998L30.6039 18.7472L40.3062 28.4775L48.7722 16.5829ZM50.2902 47.0085L53.5666 46.6185L29.208 22.189L25.6922 22.6075L50.2902 47.0085Z" fill="#422834"/>
</svg>
