<svg width="136" height="133" viewBox="0 0 136 133" fill="none" xmlns="http://www.w3.org/2000/svg">
<path d="M115.963 76.8391C111.47 102.025 87.8185 117.496 61.6597 112.83C35.5009 108.164 15.7234 79.5615 20.216 54.3757C24.7086 29.1898 56.6316 17.7792 82.7904 22.4453C108.949 27.1115 120.455 51.6532 115.963 76.8391Z" fill="#FFFFFE"/>
<g clip-path="url(#clip0_260_142)">
<path fill-rule="evenodd" clip-rule="evenodd" d="M73.698 57.6235C75.4364 57.1147 77.676 56.3087 79.9954 55.071C80.2664 56.0345 80.1761 56.817 79.8435 57.4025C79.6085 57.8152 79.2449 58.1458 78.803 58.3816C78.3243 58.6362 77.7565 58.783 77.1534 58.8093C76.0086 58.8605 74.7488 58.4874 73.6981 57.623M72.5296 65.7982L74.4274 67.3903C69.6821 69.0319 67.7125 73.297 65.5431 77.4063C64.9244 72.801 64.5465 68.1179 60.6583 64.941L62.9887 64.101C63.4365 64.0177 63.7789 63.657 63.8371 63.2069C64.3691 59.0915 65.7968 57.4835 67.4912 56.6163C68.0986 56.3056 68.7193 56.2059 69.2961 56.3085C69.8728 56.4111 70.4211 56.7188 70.8841 57.2198C72.1749 58.6185 72.9605 60.6197 72.0412 64.6663C71.9405 65.1088 72.1381 65.5656 72.5291 65.7981L72.5296 65.7982ZM72.4995 38.303C74.9316 38.8032 77.2978 39.7114 79.2605 41.0086C80.6197 41.908 81.8435 42.9938 82.9088 44.2218C83.3897 44.7762 83.7743 45.2976 84.1939 45.8937C85.56 46.1854 87.8392 45.0224 89.0248 43.7657C86.4878 48.7194 78.0639 53.6035 72.5728 55.0692C72.5711 55.0679 72.5698 55.0667 72.5685 55.0655C71.7817 54.2118 70.8198 53.6836 69.7964 53.5016C68.7729 53.3195 67.6879 53.4836 66.655 54.0135C66.6533 54.0142 66.6516 54.0154 66.6496 54.0156C61.9999 50.7459 55.7777 43.2561 55.1045 37.7317C55.784 39.3202 57.5218 41.1983 58.9047 41.3951C59.5041 40.9807 60.0449 40.6235 60.6875 40.269C62.1105 39.4836 63.6342 38.8865 65.2201 38.511C67.5103 37.9703 70.044 37.9338 72.4995 38.303ZM64.7116 56.025C63.2558 54.948 61.4311 53.419 59.6808 51.4573C59.0942 52.2683 58.9091 53.034 59.0189 53.6982C59.0971 54.1665 59.3244 54.6023 59.6579 54.976C60.0199 55.3801 60.5022 55.7137 61.0593 55.9464C62.1162 56.3892 63.4274 56.4734 64.7112 56.0244" fill="#422834"/>
<path fill-rule="evenodd" clip-rule="evenodd" d="M82.5726 53.5076C83.8929 52.5813 85.1018 51.511 86.0929 50.5401L86.3618 51.3672C87.1995 54.1832 87.4158 56.8783 86.9003 59.7759L86.0794 64.374L85.6796 66.7618C84.7324 72.6306 84.9512 78.7774 86.8677 84.7081L81.7019 78.7968L76.2121 84.9289L72.4795 79.9326L63.2627 90.2276L58.1616 77.3861L52.9349 80.7887L49.8966 73.1396L43.0091 76.9068C46.8533 72.0008 49.1781 66.306 50.3132 60.4711L50.7614 58.0919L51.5765 53.4929C52.0921 50.5947 53.224 48.14 54.9819 45.7856L55.519 45.1019C56.1151 46.3547 56.8802 47.7762 57.8 49.1015L57.3213 49.7628C56.3916 51.0471 55.8873 52.5785 56.1507 54.1675C56.3209 55.1906 56.7967 56.127 57.4876 56.9C58.1585 57.6506 59.0081 58.2273 59.9354 58.6158C60.5398 58.8688 61.1705 59.0411 61.8112 59.1347C61.5135 59.9474 61.2935 60.8057 61.1319 61.6918L54.8654 63.9504L58.8166 67.1792C59.1323 67.4375 59.4265 67.7208 59.6952 68.0274C62.7366 71.9044 63.2095 81.8575 63.8726 86.796C66.1982 82.3892 70.0744 73.2097 74.2664 70.6193C74.6242 70.4247 74.9981 70.2598 75.3835 70.1262L80.2059 68.4581L75.1026 64.177C75.256 63.2895 75.346 62.408 75.3468 61.5425C75.9805 61.6756 76.6319 61.7314 77.2865 61.7023C78.2909 61.6575 79.2872 61.4091 80.1759 60.9359C81.091 60.4486 81.8605 59.7337 82.373 58.832C83.1682 57.4319 83.223 55.8205 82.7933 54.2939L82.572 53.508L82.5726 53.5076Z" fill="#422834"/>
</g>
<defs>
<clipPath id="clip0_260_142">
<rect width="44.5471" height="52.7396" fill="white" transform="translate(50.5698 34.4023) rotate(10.0865)"/>
</clipPath>
</defs>
</svg>
