<svg width="90" height="85" viewBox="0 0 90 85" fill="none" xmlns="http://www.w3.org/2000/svg">
<path d="M85.47 38.9294C88.1291 59.8317 71.1036 76.9402 49.3938 79.7021C27.684 82.4639 7.34319 65.7081 4.68408 44.8058C2.02498 23.9035 24.3137 7.94279 46.0235 5.18096C67.7333 2.41913 82.8109 18.0271 85.47 38.9294Z" fill="#FFFFFE"/>
<g clip-path="url(#clip0_260_129)">
<path d="M41.2876 25.2427C40.7689 25.1619 40.747 25.1523 40.9911 25.1147C41.4589 25.0423 42.5635 25.1409 43.3247 25.3228C45.1017 25.7472 46.7188 26.8346 48.4448 28.7657L48.9034 29.2788L49.5593 29.1728C52.3229 28.7266 55.1342 29.0812 57.4856 30.1728C58.1325 30.4731 59.1525 31.0709 59.2799 31.2246C59.3205 31.2735 59.3951 31.5887 59.4455 31.9249C59.6202 33.0883 59.5328 33.9801 59.1786 34.6461C58.986 35.0086 58.9752 35.1235 59.1048 35.4337C59.2082 35.6812 59.4965 35.8644 59.782 35.8641C60.3664 35.8632 60.9953 34.914 61.2867 33.5932L61.4025 33.0686L61.6318 33.3296C62.8897 34.7617 63.8777 36.7147 64.0474 38.1049L64.0916 38.4673L63.8802 38.1378C63.5163 37.5709 63.1506 37.1848 62.6825 36.8735C61.8385 36.3124 60.9462 36.1214 58.5829 35.9963C56.4485 35.8832 55.2405 35.7001 54.0426 35.3075C52.0047 34.6398 50.9773 33.7506 48.5564 30.5588C47.4811 29.1413 46.8165 28.3569 46.1554 27.7252C44.6532 26.29 43.1771 25.5372 41.2876 25.2427Z" fill="#422834"/>
<path d="M59.7613 28.4083C59.815 27.4584 59.9432 26.8317 60.2009 26.2596C60.3029 26.033 60.3985 25.8477 60.4133 25.8477C60.428 25.8477 60.3837 26.0148 60.3147 26.2192C60.1273 26.7745 60.0966 27.534 60.2256 28.4178C60.3895 29.5391 60.4826 29.7009 61.662 30.9122C62.2152 31.4803 62.8586 32.1968 63.0919 32.5044L63.516 33.0638L63.0919 32.664C62.5732 32.1752 61.3804 31.2218 61.1169 31.0855C60.9403 30.9942 60.914 30.9957 60.805 31.1047C60.7046 31.2052 60.6834 31.356 60.6695 32.0695C60.6478 33.1814 60.497 33.8951 60.133 34.6088C59.9362 34.9948 59.9051 34.9124 60.0833 34.4768C60.2163 34.1515 60.2298 34.0085 60.2288 32.932C60.2267 30.7692 59.9712 30.2493 58.4727 29.3585C58.0931 29.1329 57.4676 28.8074 57.0828 28.6353C56.698 28.4632 56.3923 28.3133 56.4034 28.3021C56.4458 28.2596 57.9072 28.6882 58.4954 28.9156C59.3703 29.2538 59.5147 29.2976 59.621 29.2568C59.6922 29.2295 59.7266 29.021 59.7613 28.4083Z" fill="#422834"/>
<path d="M42.2963 32.1076C41.2432 30.6507 40.5917 28.417 40.7327 26.7472L40.7764 26.2305L41.016 26.2745C41.4662 26.357 42.2423 26.6473 42.6058 26.8691C43.6031 27.4777 44.0348 28.2791 44.4741 30.3369C44.6028 30.9395 44.7716 31.6216 44.8493 31.8526C44.9744 32.2243 45.4469 33.0924 45.831 33.6563C46.1078 34.0623 45.924 34.2548 45.3123 34.1993C44.3781 34.1145 43.1127 33.237 42.2963 32.1076Z" fill="#422834"/>
<path d="M58.4853 42.9501C53.564 40.9589 51.8308 39.2306 51.8308 36.3145C51.8308 35.8853 51.8455 35.5342 51.8634 35.5342C51.8813 35.5342 52.0718 35.6759 52.2865 35.8489C53.2845 36.6532 54.402 36.9968 57.4956 37.4503C59.3161 37.7172 60.3405 37.9328 61.2856 38.2477C64.2893 39.2487 66.1477 41.2802 66.5908 44.0472C66.7196 44.8512 66.6441 46.3589 66.4353 47.1536C66.2705 47.7812 65.7675 48.9125 65.6341 48.9559C65.5971 48.9679 65.5608 48.8255 65.5513 48.6316C65.5007 47.5927 64.9782 46.5812 64.1008 45.8234C63.1031 44.962 61.7627 44.276 58.4853 42.9501Z" fill="#422834"/>
<path d="M55.0299 43.7778C54.9682 43.4091 54.8613 42.9382 54.7922 42.7314L54.6667 42.3555L54.8999 42.6186C55.2226 42.9826 55.4777 43.4485 55.6939 44.0689C55.8589 44.5425 55.8774 44.6832 55.8762 45.4528C55.8749 46.2083 55.8543 46.3667 55.702 46.7929C55.4617 47.465 55.1636 47.9416 54.6633 48.4532C53.7644 49.3726 52.6086 49.8816 50.9408 50.0928C50.6508 50.1294 49.8059 50.1913 49.063 50.2301C47.1908 50.3278 45.9587 50.53 44.8516 50.9207C44.6924 50.9769 44.5502 51.011 44.5358 50.9965C44.491 50.9517 45.2449 50.5001 45.8675 50.1987C46.7454 49.7738 47.6193 49.5419 49.5774 49.2142C50.5447 49.0523 51.5436 48.8559 51.7973 48.7778C54.1927 48.0398 55.4239 46.1352 55.0299 43.7778Z" fill="#422834"/>
<path d="M57.2854 47.804C56.6316 46.3915 56.4815 45.0278 56.8396 43.7559C56.878 43.62 56.9396 43.5088 56.9767 43.5088C57.0137 43.5088 57.168 43.5927 57.3195 43.6951C57.6208 43.8989 58.2251 44.2422 59.8351 45.1242C61.8441 46.2249 62.9895 47.0772 63.7685 48.0509C64.4506 48.9038 64.8728 49.875 65.076 51.0593C65.191 51.7303 65.1236 53.3445 64.9523 54.02C64.4122 56.1501 63.1568 57.8232 61.3662 58.7995C61.1038 58.9425 60.8684 59.06 60.8429 59.0605C60.8174 59.061 60.9129 58.8168 61.0552 58.5177C61.6576 57.2525 61.7262 56.0217 61.2708 54.6518C60.9919 53.8129 60.4235 52.7894 59.2756 51.0596C57.941 49.0485 57.6137 48.5132 57.2854 47.804Z" fill="#422834"/>
<path d="M38.8003 55.4252C40.6266 53.8757 42.8988 52.7749 44.9687 52.4371C45.8607 52.2914 47.3467 52.3492 48.1727 52.5616C49.4969 52.9022 50.6812 53.6648 51.2972 54.5735C51.8993 55.4615 52.1575 56.2354 52.4265 57.9573C52.5325 58.6365 52.6479 59.3186 52.6828 59.473C52.8847 60.3654 53.2777 61.0787 53.7646 61.4369C54.5381 62.0057 55.8699 62.0411 57.18 61.5276C57.4024 61.4404 57.5954 61.3801 57.609 61.3938C57.6565 61.4412 56.9969 61.885 56.5314 62.1186C55.9052 62.4329 55.4072 62.5545 54.7455 62.5545C53.5456 62.5545 52.5493 61.941 51.7181 60.6903C51.5545 60.4442 51.1868 59.7069 50.901 59.052C50.0234 57.0403 49.5899 56.4275 48.5709 55.7569C47.684 55.1733 46.5403 55.0688 45.6799 55.4928C44.5497 56.0496 44.2343 57.501 45.0438 58.4208C45.3655 58.7863 45.9655 59.1016 46.4561 59.1629C47.3739 59.2776 48.1626 58.576 48.1626 57.6449C48.1626 57.0402 47.9313 56.6952 47.3492 56.4312C46.554 56.0707 45.6994 56.4921 45.7035 57.2428C45.7053 57.5628 45.844 57.7638 46.1632 57.909C46.368 58.0021 46.3728 58.0095 46.2057 57.9746C45.4762 57.8226 45.3053 56.9388 45.8919 56.352C46.5961 55.6476 48.0524 55.9585 48.5526 56.92C48.7626 57.3238 48.787 58.1281 48.6039 58.6138C48.1939 59.7008 46.9986 60.2724 45.786 59.9613C44.9605 59.7495 44.6243 59.5202 43.629 58.4899C41.8994 56.6996 41.2279 56.3526 38.7344 55.9615L38.2566 55.8866L38.8003 55.4252Z" fill="#422834"/>
<path fill-rule="evenodd" clip-rule="evenodd" d="M25.7586 15.3199C31.5347 22.3646 40.4396 33.3327 40.8817 33.9468C41.2467 34.4538 41.1094 34.9096 40.4841 35.2668C40.1363 35.4655 39.4213 35.6668 39.0634 35.6668C38.6585 35.6668 38.2024 35.4709 37.8703 35.1543C37.6354 34.9305 36.6879 33.5087 34.5006 30.0981C32.8269 27.4885 31.4263 25.3237 31.3881 25.2874C31.2998 25.2036 31.3013 25.2064 34.3299 30.652C36.2317 34.0714 36.8737 35.2803 36.8737 35.442C36.8737 35.7708 36.7845 35.9436 36.3808 36.3962C35.7078 37.1506 35.407 37.9982 35.1898 39.7526C34.9463 41.7192 34.2618 43.1084 32.3646 45.486C31.2541 46.8778 31.0724 47.1328 30.7922 47.6938C30.4392 48.4002 30.3421 48.7958 30.3028 49.6878C30.2613 50.631 30.3422 51.2402 30.629 52.1419C30.88 52.9314 31.142 53.4526 31.8119 54.4953C32.3899 55.395 32.7229 56.0637 32.7229 56.3252C32.7229 56.5333 32.7624 56.5336 33.6582 56.3303C35.8019 55.8438 37.5427 54.9882 38.5217 53.9398C39.1275 53.2908 39.2698 52.9324 39.2744 52.0431C39.2774 51.4614 39.2571 51.3396 39.1006 51.005C38.8459 50.4603 38.3822 50.0074 37.3601 49.3054C36.021 48.3854 35.4491 47.6449 35.291 46.6264C35.1614 45.7907 35.3118 45.201 36.0526 43.6408C36.8194 42.0258 37.0094 41.3375 37.138 39.7097C37.221 38.6579 37.336 38.2431 37.6367 37.9103C37.9503 37.563 38.2326 37.4455 39.0087 37.3389C40.2741 37.1652 41.0798 36.8363 41.7421 36.223C42.3166 35.691 42.5571 35.1783 42.594 34.4066L42.622 33.8217L42.3009 33.4456C41.1382 32.0832 24.98 14.249 24.9084 14.249C24.8931 14.249 25.2757 14.731 25.7586 15.3199ZM33.3755 50.755C33.6384 50.2872 33.4987 49.6857 33.059 49.3919C32.6435 49.1143 31.998 49.2451 31.998 49.6068C31.998 49.7172 32.0589 49.7976 32.1958 49.8684C32.4262 49.9876 32.443 50.1216 32.2616 50.3956C32.0779 50.6731 32.0928 50.917 32.3035 51.0828C32.6431 51.35 33.1237 51.203 33.3755 50.755Z" fill="#422834"/>
<path fill-rule="evenodd" clip-rule="evenodd" d="M43.4203 37.6456C42.8263 37.829 42.2489 38.4616 42.07 39.125C41.961 39.5297 42.0229 40.2396 42.1863 40.4588C42.4501 40.8129 42.7053 40.9062 43.3963 40.9013C44.749 40.8919 45.925 40.3088 46.0618 39.5799C46.1739 38.9825 45.6574 38.1545 44.9459 37.791C44.5788 37.6035 43.798 37.5291 43.4203 37.6456ZM45.0017 38.8882C45.2103 38.5904 45.1191 38.2684 44.7643 38.0508C44.0886 37.6362 43.0668 37.9792 43.0668 38.6207C43.0668 38.94 43.5996 39.2883 44.0881 39.2883C44.4131 39.2883 44.858 39.0935 45.0017 38.8882Z" fill="#422834"/>
</g>
<defs>
<clipPath id="clip0_260_129">
<rect width="48.2767" height="48.2767" fill="white" transform="translate(21.3828 14.7002)"/>
</clipPath>
</defs>
</svg>
