<svg width="112" height="108" viewBox="0 0 112 108" fill="none" xmlns="http://www.w3.org/2000/svg">
<path d="M105.327 48.1614C108.598 73.8694 83.5135 98.2382 56.8124 101.635C30.1114 105.032 9.23847 81.0968 5.96802 55.3889C2.69756 29.6809 30.1113 8.99842 56.8124 5.60162C83.5134 2.20483 102.057 22.4535 105.327 48.1614Z" fill="#FFFFFE"/>
<path fill-rule="evenodd" clip-rule="evenodd" d="M48.2989 30.3165C45.4618 32.2344 43.1459 33.8475 43.1528 33.9013C43.1705 34.04 50.8459 36.8384 51.1021 36.7994C51.2186 36.7818 52.0219 36.2938 52.8873 35.7153L54.4607 34.6635L56.3981 35.383L58.3355 36.1028L61.1723 34.4149C65.4466 31.8715 65.8891 31.5959 65.8071 31.5304C65.6981 31.4433 63.9791 30.7694 59.3205 28.9872C57.069 28.1259 54.8825 27.279 54.4614 27.105C54.04 26.9308 53.642 26.7979 53.5764 26.809C53.5108 26.8202 51.1359 28.3985 48.2987 30.3164L48.2989 30.3165ZM35.8508 38.6879L32.896 40.6709L33.7266 47.7553C34.1835 51.6517 34.5985 54.8348 34.6493 54.8289C34.7 54.8229 36.1686 53.975 37.9131 52.9446L41.0852 51.0712L40.2096 43.6038L41.9484 44.2973C43.2882 44.8313 44.6287 45.3635 45.9695 45.8944L48.2518 46.798L49.1568 46.2566C49.7243 45.9165 50.2903 45.5742 50.8547 45.2292C51.2908 44.9616 52.3633 44.3222 53.238 43.808C54.1128 43.2937 54.9186 42.7849 55.0287 42.6777C55.175 42.5352 53.0879 41.6881 47.3087 39.5443C42.9526 37.9284 39.2573 36.6284 39.0971 36.6555C38.9368 36.6827 37.4761 37.597 35.8508 38.6877L35.8508 38.6879ZM66.8481 35.5128C64.8194 36.7246 63.1625 37.7548 63.166 37.802C63.1697 37.8493 64.4176 38.4021 65.9394 39.0305C67.4611 39.6591 68.7113 40.2158 68.7174 40.2681C68.7235 40.3204 67.5308 41.0772 66.0673 41.9505C64.6034 42.8236 60.904 45.0342 57.8461 46.863L47.5997 52.9904C45.0223 54.5319 42.699 55.9213 42.4369 56.0782C37.1727 59.2303 35.7267 60.1031 35.5309 60.2468C35.334 60.3914 35.368 61.0936 35.7404 64.5943L36.1844 68.7696L39.1632 69.8638L42.1417 70.958L45.8355 68.7521C47.8671 67.5389 49.5233 66.4959 49.5161 66.4342C49.5088 66.3724 49.0825 66.1626 48.5689 65.9669C48.055 65.7713 46.9896 65.3299 46.2013 64.9856C45.4129 64.6413 44.631 64.3324 44.4633 64.2989C44.2957 64.2656 44.1553 64.1894 44.1509 64.1293C44.1466 64.0695 45.7684 63.0578 47.7547 61.8808C51.6126 59.5949 54.5638 57.8357 60.8982 54.0463C63.7307 52.352 66.564 50.659 69.3972 48.966C71.8874 47.4785 74.7822 45.7431 75.8298 45.1093L77.7346 43.957L77.2847 39.7343L76.8351 35.5117L73.8128 34.3914C72.1503 33.7752 70.7332 33.2798 70.6632 33.2904C70.5932 33.3009 68.8762 34.301 66.8477 35.513L66.8481 35.5128ZM77.6305 49.6728C77.2341 49.9261 76.4489 50.4054 75.8855 50.7378C75.322 51.0702 74.2536 51.7081 73.5112 52.1556L72.1617 52.9689L72.5634 56.6752C72.7843 58.7136 72.903 60.3796 72.8275 60.3776C72.6558 60.3724 69.8247 59.3239 66.9717 58.2087C64.9125 57.4037 64.7859 57.3771 64.3568 57.6546C64.1087 57.8153 62.6172 58.7012 61.0424 59.6238C59.4676 60.5463 58.1307 61.355 58.0709 61.4209C58.0115 61.4868 61.5636 62.8949 65.965 64.5503L73.967 67.56L76.996 65.5247C78.6618 64.4056 80.0717 63.3974 80.1288 63.2848C80.2576 63.0313 78.6162 49.1483 78.4619 49.1854C78.4008 49.2001 78.0266 49.4193 77.6302 49.6726L77.6305 49.6728ZM61.6919 68.0628C61.1607 68.3673 60.6299 68.6721 60.0992 68.9772C58.4969 69.9007 58.8303 69.8859 56.7062 69.1281C55.2915 68.6234 54.6911 68.4868 54.4526 68.6152C54.2737 68.7114 52.7433 69.623 51.0516 70.6409C49.3599 71.6587 47.9139 72.4987 47.8382 72.5075C47.0886 72.5954 48.4216 73.1893 53.5124 75.0361L59.4829 77.2019L61.719 75.7595C62.9488 74.9663 65.4305 73.3752 67.234 72.2244C69.0373 71.0732 70.4863 70.1099 70.454 70.0839C70.4215 70.0578 68.7235 69.428 66.6806 68.6844L62.9661 67.3324L61.6919 68.0632L61.6919 68.0628Z" fill="#422834"/>
</svg>
