<svg width="274" height="84" viewBox="0 0 274 84" fill="none" xmlns="http://www.w3.org/2000/svg">
<path d="M203.377 11.8682C207.212 12.0649 209.769 12.0649 212.129 12.0649C217.342 12.0649 260.121 12.0649 264.94 12.0649C267.005 12.0649 270.546 12.0649 273.594 11.9665C273.398 14.3268 273.398 17.0804 273.398 19.539C273.398 24.1612 273.398 64.2855 273.398 68.0226C273.398 71.1696 273.496 78.8404 273.594 79.9222H265.038C265.137 78.8404 265.235 73.2348 265.235 69.1044C265.235 65.4656 265.235 19.834 265.235 19.834H211.539C211.539 19.834 211.539 65.0723 211.539 69.1044C211.539 72.3497 211.638 78.6437 211.638 79.9222H203.278C203.278 78.6437 203.475 71.4646 203.475 68.0226C203.475 63.9905 203.475 23.3744 203.475 19.539C203.475 17.2771 203.475 14.3268 203.377 11.8682ZM268.48 66.6458V74.3166H207.605V66.6458H268.48Z" fill="#FFF8A5"/>
<path d="M99.1309 43.7316C116.144 39.2078 131.093 32.2254 142.009 25.4397C152.335 18.949 162.169 10.4914 168.955 2.23047L175.544 8.42614C167.087 17.1788 156.76 25.4397 145.254 32.6188C134.436 39.3062 118.8 46.4853 102.966 51.4025L99.1309 43.7316ZM140.435 29.4718L148.893 26.9148V71.858C148.893 75.4968 149.09 80.414 149.581 82.2825H139.845C140.14 80.414 140.435 75.4968 140.435 71.858V29.4718Z" fill="#FFF8A5"/>
<path d="M46.6151 0.558594C46.2217 2.62382 46.025 6.45924 46.025 9.11452C46.025 11.7698 46.025 16.8837 46.025 18.8506H38.1575C38.1575 16.8837 38.1575 11.9665 38.1575 9.11452C38.1575 6.36089 38.0591 2.72216 37.6658 0.558594H46.6151ZM73.6597 19.834C71.8895 21.6042 69.7259 23.8661 68.1524 25.7347C63.0385 31.7336 54.5809 40.1912 45.2383 46.5836C34.5188 54.0577 21.6357 59.7617 4.81886 64.8756L0 57.5981C18.6854 53.0743 30.9784 46.6819 39.8293 40.8796C48.6803 35.1757 56.4495 27.5049 59.8915 22.8827C55.2694 22.8827 23.4059 22.8827 18.9804 22.8827C15.6367 22.8827 9.93275 22.981 6.98243 23.2761V14.9168C10.1294 15.3102 15.5384 15.5069 18.8821 15.5069C23.4059 15.5069 56.3511 15.5069 62.2518 15.5069C64.612 15.5069 66.8739 15.3102 68.4475 14.8185L73.6597 19.834ZM45.8283 42.5515C45.8283 50.124 45.8283 64.9739 45.8283 72.5464C45.8283 75.9885 46.025 80.4139 46.32 83.4626H37.3707C37.6658 80.5123 37.9608 75.9885 37.9608 72.5464C37.9608 65.1706 37.9608 52.1892 37.9608 45.8952L45.8283 42.5515ZM78.1835 66.0557C69.6276 59.7617 63.7269 55.8279 54.5809 50.9107L59.6948 45.2068C68.9392 50.124 74.2498 53.271 83.3957 59.3683L78.1835 66.0557Z" fill="#FFF8A5"/>
</svg>
