<svg width="91" height="88" viewBox="0 0 91 88" fill="none" xmlns="http://www.w3.org/2000/svg">
<path d="M81.8945 52.9648C77.281 71.8769 53.1374 82.2308 33.4947 77.439C13.8521 72.6473 5.6416 50.2491 10.2551 31.337C14.8687 12.4249 36.5514 4.75592 56.1941 9.54768C75.8368 14.3394 86.5081 34.0527 81.8945 52.9648Z" fill="#FFFFFE"/>
<path fill-rule="evenodd" clip-rule="evenodd" d="M60.3368 25.2189C60.794 25.0251 61.2945 24.9582 61.7861 25.0253C62.2777 25.0924 62.7425 25.291 63.132 25.6004C63.5216 25.9098 63.8217 26.3187 64.0011 26.7846C64.1805 27.2505 64.2327 27.7563 64.1521 28.2493L59.9556 53.8885C59.5485 56.3617 56.8545 57.7799 54.6026 56.548C52.719 55.5174 49.9213 53.9295 47.4049 52.2727C46.1467 51.4433 42.2924 48.7875 42.7661 46.8977C43.1732 45.2819 49.6493 39.2099 53.35 35.5998C54.8025 34.1815 54.1401 33.3634 52.4248 34.668C48.1654 37.9071 41.3266 42.8329 39.0655 44.2195C37.0708 45.4421 36.031 45.6509 34.7875 45.4421C32.5191 45.0619 30.4152 44.473 28.6981 43.7555C26.3778 42.7863 26.4907 39.5733 28.6963 38.6377L60.3368 25.2189Z" fill="#422834"/>
</svg>
