<svg width="74" height="71" viewBox="0 0 74 71" fill="none" xmlns="http://www.w3.org/2000/svg">
<path d="M69.3505 31.7393C71.5151 48.7542 54.913 64.8828 37.2409 67.1309C19.5687 69.3791 5.75386 53.5377 3.58929 36.5228C1.42473 19.5079 19.5686 5.81913 37.2408 3.57095C54.913 1.32277 67.1859 14.7244 69.3505 31.7393Z" fill="#FFFFFE"/>
<path d="M45.2222 15.3776L50.8163 14.7117L40.1969 29.628L56.7559 46.2306L45.4978 47.5707L35.3587 37.5113L26.5904 49.8215L20.9933 50.4877L32.3524 34.5327L16.4904 18.7993L28.0343 17.4251L37.2131 26.6303L45.2222 15.3776ZM46.6583 44.1614L49.7579 43.7925L26.7137 20.6812L23.3877 21.0771L46.6583 44.1614Z" fill="#422834"/>
</svg>
